<?xml version="1.0" standalone="no"?>
<!DOCTYPE svg PUBLIC "-//W3C//DTD SVG 1.1//EN" "http://www.w3.org/Graphics/SVG/1.1/DTD/svg11.dtd" >
<svg xmlns="http://www.w3.org/2000/svg" xmlns:xlink="http://www.w3.org/1999/xlink" version="1.1">
<metadata>
Created by FontForge 20170924 at Wed Jun 26 16:32:54 2019
 By www-data
Copyright (c) 2019 by Lynk &#38; Co. All rights reserved. Designed by Letters from Sweden and Geely Design.
</metadata>
<defs>
<font id="LynkcoType-Bold" horiz-adv-x="0" >
  <font-face 
    font-family="Lynkco Type Bold"
    font-weight="700"
    font-stretch="normal"
    units-per-em="1000"
    panose-1="0 0 8 0 0 0 0 0 0 0"
    ascent="750"
    descent="-250"
    x-height="493"
    cap-height="680"
    bbox="-493 -255 1226 911"
    underline-thickness="50"
    underline-position="-100"
    unicode-range="U+0020-FB02"
  />
<missing-glyph horiz-adv-x="450" 
d="M50 780h350v-880h-350v880zM370 -70v820h-290v-820h290z" />
    <glyph glyph-name="fi" unicode="fi" horiz-adv-x="674" 
d="M275 588.5q-14 -8.5 -18 -24.5v-71h76v-109h-76v-384h-147v384h-64v109h64v78q0 67 45.5 106t114.5 39q37 0 63 -8v-113q-12 2 -25 2q-19 0 -33 -8.5zM453 493h146v-493h-146v493zM444 709h163v-140h-163v140z" />
    <glyph glyph-name="fl" unicode="fl" horiz-adv-x="674" 
d="M275 588.5q-14 -8.5 -18 -24.5v-71h76v-109h-76v-384h-147v384h-64v109h64v78q0 67 45.5 106t114.5 39q37 0 63 -8v-113q-12 2 -25 2q-19 0 -33 -8.5zM453 710h146v-710h-146v710z" />
    <glyph glyph-name=".notdef" horiz-adv-x="450" 
d="M50 780h350v-880h-350v880zM370 -70v820h-290v-820h290z" />
    <glyph glyph-name="space" unicode=" " horiz-adv-x="200" 
 />
    <glyph glyph-name="A" unicode="A" horiz-adv-x="669" 
d="M460 109h-260l-48 -109h-147l329 705h2l328 -705h-155zM404 236l-74 166l-73 -166h147z" />
    <glyph glyph-name="Aacute" unicode="&#xc1;" horiz-adv-x="669" 
d="M460 109h-260l-48 -109h-147l329 705h2l328 -705h-155zM404 236l-74 166l-73 -166h147zM352 881h158l-100 -137h-141z" />
    <glyph glyph-name="Abreve" unicode="&#x102;" horiz-adv-x="669" 
d="M460 109h-260l-48 -109h-147l329 705h2l328 -705h-155zM404 236l-74 166l-73 -166h147zM222.5 768.5q-40.5 39.5 -42.5 96.5h82q2 -20 21 -37t52 -17t52 17t21 37h81q-2 -57 -42.5 -96.5t-111.5 -39.5q-72 0 -112.5 39.5z" />
    <glyph glyph-name="Acircumflex" unicode="&#xc2;" horiz-adv-x="669" 
d="M460 109h-260l-48 -109h-147l329 705h2l328 -705h-155zM404 236l-74 166l-73 -166h147zM392 744l-58 73l-58 -73h-132l103 137h174l103 -137h-132z" />
    <glyph glyph-name="Adieresis" unicode="&#xc4;" horiz-adv-x="669" 
d="M460 109h-260l-48 -109h-147l329 705h2l328 -705h-155zM404 236l-74 166l-73 -166h147zM140 880h147v-136h-147v136zM383 880h146v-136h-146v136z" />
    <glyph glyph-name="Agrave" unicode="&#xc0;" horiz-adv-x="669" 
d="M460 109h-260l-48 -109h-147l329 705h2l328 -705h-155zM404 236l-74 166l-73 -166h147zM158 881h158l83 -137h-140z" />
    <glyph glyph-name="Amacron" unicode="&#x100;" horiz-adv-x="669" 
d="M460 109h-260l-48 -109h-147l329 705h2l328 -705h-155zM404 236l-74 166l-73 -166h147zM186 864h297v-110h-297v110z" />
    <glyph glyph-name="Aogonek" unicode="&#x104;" horiz-adv-x="669" 
d="M637 -127q12 0 27 3v-69q-12 -6 -30 -10t-34 -4h-4q-55 0 -82.5 23.5t-27.5 67.5v3q0 28 21 59.5t57 51.5l3 2h-58l-49 109h-260l-48 -109h-147l329 705h2l328 -705l-22 -15q-25 -17 -37.5 -36t-12.5 -36v-2q0 -17 11.5 -27.5t30.5 -10.5h3zM404 236l-74 166l-73 -166
h147z" />
    <glyph glyph-name="Aring" unicode="&#xc5;" horiz-adv-x="669" 
d="M460 109h-260l-48 -109h-147l315 676q-44 5 -74 37.5t-30 75.5q0 47 35 80.5t84 33.5t83.5 -33.5t34.5 -80.5q0 -43 -29.5 -75.5t-73.5 -37.5l314 -676h-155zM300.5 754.5q14.5 -14.5 34.5 -14.5t34.5 14.5t14.5 34.5t-14.5 34t-34.5 14t-34.5 -14t-14.5 -34t14.5 -34.5z
M404 236l-74 166l-73 -166h147z" />
    <glyph glyph-name="Atilde" unicode="&#xc3;" horiz-adv-x="669" 
d="M460 109h-260l-48 -109h-147l329 705h2l328 -705h-155zM404 236l-74 166l-73 -166h147zM257 883q36 0 78 -21l20 -10q30 -15 47 -15q15 0 21.5 11.5t7.5 34.5h89q-3 -69 -28.5 -104t-79.5 -35q-37 0 -79 22l-21 11q-24 13 -43 13q-31 0 -33 -46h-89q5 139 110 139z" />
    <glyph glyph-name="AE" unicode="&#xc6;" horiz-adv-x="935" 
d="M870 134v-134h-418v185h-197l-98 -185h-157l366 680h499v-134h-260v-128h229v-135h-229v-149h265zM452 311v243l-129 -243h129z" />
    <glyph glyph-name="B" unicode="B" horiz-adv-x="631" 
d="M555 297q30 -40 30 -96v-9q0 -92 -61 -142t-166 -50h-274v680h259q63 0 111.5 -22t75 -62.5t26.5 -92.5v-11q0 -42 -22 -77t-61 -58q52 -20 82 -60zM234 559v-148h101q27 0 45.5 11t25.5 29q2 12 2 34q0 25 -2 33q-7 18 -25.5 29.5t-45.5 11.5h-101zM432 214q0 26 -2 36
q-8 21 -30.5 32.5t-54.5 11.5h-111v-169h111q32 0 54.5 13t30.5 39q2 12 2 37z" />
    <glyph glyph-name="C" unicode="C" horiz-adv-x="624" 
d="M207.5 24.5q-73.5 41.5 -117 119.5t-43.5 183v26q0 105 43.5 183t117 119.5t159.5 41.5h7q53 0 102 -16.5t85 -43.5v-146q-44 34 -86 52.5t-88 18.5h-8q-60 0 -106.5 -30t-60.5 -71q-4 -27 -4 -121q0 -93 4 -121q14 -41 60.5 -71t106.5 -30h8q45 0 86.5 18.5t87.5 52.5
v-146q-36 -27 -85 -43.5t-102 -16.5h-7q-86 0 -159.5 41.5z" />
    <glyph glyph-name="Cacute" unicode="&#x106;" horiz-adv-x="624" 
d="M207.5 24.5q-73.5 41.5 -117 119.5t-43.5 183v26q0 105 43.5 183t117 119.5t159.5 41.5h7q53 0 102 -16.5t85 -43.5v-146q-44 34 -86 52.5t-88 18.5h-8q-60 0 -106.5 -30t-60.5 -71q-4 -27 -4 -121q0 -93 4 -121q14 -41 60.5 -71t106.5 -30h8q45 0 86.5 18.5t87.5 52.5
v-146q-36 -27 -85 -43.5t-102 -16.5h-7q-86 0 -159.5 41.5zM388 881h158l-100 -137h-141z" />
    <glyph glyph-name="Ccaron" unicode="&#x10c;" horiz-adv-x="624" 
d="M207.5 24.5q-73.5 41.5 -117 119.5t-43.5 183v26q0 105 43.5 183t117 119.5t159.5 41.5h7q53 0 102 -16.5t85 -43.5v-146q-44 34 -86 52.5t-88 18.5h-8q-60 0 -106.5 -30t-60.5 -71q-4 -27 -4 -121q0 -93 4 -121q14 -41 60.5 -71t106.5 -30h8q45 0 86.5 18.5t87.5 52.5
v-146q-36 -27 -85 -43.5t-102 -16.5h-7q-86 0 -159.5 41.5zM560 881l-103 -137h-174l-103 137h132l58 -73l58 73h132z" />
    <glyph glyph-name="Ccedilla" unicode="&#xc7;" horiz-adv-x="624" 
d="M272.5 532q-46.5 -30 -60.5 -71q-4 -27 -4 -121q0 -93 4 -121q14 -41 60.5 -71t106.5 -30h8q45 0 86.5 18.5t87.5 52.5v-146q-36 -27 -85 -43.5t-102 -16.5l-17 -43q37 -8 58.5 -30t21.5 -57v-3q0 -47 -31.5 -71.5t-87.5 -24.5h-4q-23 0 -46 6.5t-38 16.5v60
q31 -19 72 -19h4q17 0 27 9t10 22v6q0 12 -12.5 20.5t-32.5 8.5h-36l42 105q-72 14 -130.5 58t-92.5 116t-34 164v26q0 105 43.5 183t117 119.5t159.5 41.5h7q53 0 102 -16.5t85 -43.5v-146q-44 34 -86 52.5t-88 18.5h-8q-60 0 -106.5 -30z" />
    <glyph glyph-name="Cdotaccent" unicode="&#x10a;" horiz-adv-x="624" 
d="M207.5 24.5q-73.5 41.5 -117 119.5t-43.5 183v26q0 105 43.5 183t117 119.5t159.5 41.5h7q53 0 102 -16.5t85 -43.5v-146q-44 34 -86 52.5t-88 18.5h-8q-60 0 -106.5 -30t-60.5 -71q-4 -27 -4 -121q0 -93 4 -121q14 -41 60.5 -71t106.5 -30h8q45 0 86.5 18.5t87.5 52.5
v-146q-36 -27 -85 -43.5t-102 -16.5h-7q-86 0 -159.5 41.5zM288 880h165v-136h-165v136z" />
    <glyph glyph-name="D" unicode="D" horiz-adv-x="695" 
d="M500.5 640q67.5 -40 107.5 -114t40 -173v-26q0 -99 -40 -173t-107.5 -114t-149.5 -40h-267v680h267q82 0 149.5 -40zM487 340q0 87 -4 112q-11 37 -48.5 65.5t-85.5 28.5h-111v-412h111q48 0 85.5 28.5t48.5 65.5q4 27 4 112z" />
    <glyph glyph-name="Eth" unicode="&#xd0;" horiz-adv-x="725" 
d="M530.5 640q67.5 -40 107.5 -114t40 -173v-26q0 -99 -40 -173t-107.5 -114t-149.5 -40h-267v286h-71v108h71v286h267q82 0 149.5 -40zM517 340q0 87 -4 112q-11 37 -48.5 65.5t-85.5 28.5h-111v-152h120v-108h-120v-152h111q48 0 85.5 28.5t48.5 65.5q4 27 4 112z" />
    <glyph glyph-name="Dcaron" unicode="&#x10e;" horiz-adv-x="695" 
d="M500.5 640q67.5 -40 107.5 -114t40 -173v-26q0 -99 -40 -173t-107.5 -114t-149.5 -40h-267v680h267q82 0 149.5 -40zM487 340q0 87 -4 112q-11 37 -48.5 65.5t-85.5 28.5h-111v-412h111q48 0 85.5 28.5t48.5 65.5q4 27 4 112zM522 881l-103 -137h-174l-103 137h132
l58 -73l58 73h132z" />
    <glyph glyph-name="Dcroat" unicode="&#x110;" horiz-adv-x="725" 
d="M530.5 640q67.5 -40 107.5 -114t40 -173v-26q0 -99 -40 -173t-107.5 -114t-149.5 -40h-267v286h-71v108h71v286h267q82 0 149.5 -40zM517 340q0 87 -4 112q-11 37 -48.5 65.5t-85.5 28.5h-111v-152h120v-108h-120v-152h111q48 0 85.5 28.5t48.5 65.5q4 27 4 112z" />
    <glyph glyph-name="E" unicode="E" horiz-adv-x="567" 
d="M502 134v-134h-418v680h413v-134h-260v-128h229v-135h-229v-149h265z" />
    <glyph glyph-name="Eacute" unicode="&#xc9;" horiz-adv-x="567" 
d="M502 134v-134h-418v680h413v-134h-260v-128h229v-135h-229v-149h265zM310 881h158l-100 -137h-141z" />
    <glyph glyph-name="Ecaron" unicode="&#x11a;" horiz-adv-x="567" 
d="M502 134v-134h-418v680h413v-134h-260v-128h229v-135h-229v-149h265zM482 881l-103 -137h-174l-103 137h132l58 -73l58 73h132z" />
    <glyph glyph-name="Ecircumflex" unicode="&#xca;" horiz-adv-x="567" 
d="M502 134v-134h-418v680h413v-134h-260v-128h229v-135h-229v-149h265zM350 744l-58 73l-58 -73h-132l103 137h174l103 -137h-132z" />
    <glyph glyph-name="Edieresis" unicode="&#xcb;" horiz-adv-x="567" 
d="M502 134v-134h-418v680h413v-134h-260v-128h229v-135h-229v-149h265zM98 880h147v-136h-147v136zM341 880h146v-136h-146v136z" />
    <glyph glyph-name="Edotaccent" unicode="&#x116;" horiz-adv-x="567" 
d="M502 134v-134h-418v680h413v-134h-260v-128h229v-135h-229v-149h265zM210 880h165v-136h-165v136z" />
    <glyph glyph-name="Egrave" unicode="&#xc8;" horiz-adv-x="567" 
d="M502 134v-134h-418v680h413v-134h-260v-128h229v-135h-229v-149h265zM116 881h158l83 -137h-140z" />
    <glyph glyph-name="Emacron" unicode="&#x112;" horiz-adv-x="567" 
d="M502 134v-134h-418v680h413v-134h-260v-128h229v-135h-229v-149h265zM144 864h297v-110h-297v110z" />
    <glyph glyph-name="Eogonek" unicode="&#x118;" horiz-adv-x="567" 
d="M442.5 -51q-12.5 -19 -12.5 -36v-2q0 -17 11.5 -27.5t30.5 -10.5h3q12 0 27 3v-69q-12 -6 -30 -10t-34 -4h-4q-55 0 -82.5 23.5t-27.5 67.5v3q0 28 21 59.5t57 51.5l3 2h-321v680h413v-134h-260v-128h229v-135h-229v-149h265v-134l-22 -15q-25 -17 -37.5 -36z" />
    <glyph glyph-name="F" unicode="F" horiz-adv-x="552" 
d="M237 546v-138h230v-135h-230v-273h-153v680h413v-134h-260z" />
    <glyph glyph-name="G" unicode="G" horiz-adv-x="711" 
d="M660 360v-96q0 -79 -37.5 -143t-102.5 -101t-146 -37h-18q-85 0 -155.5 42t-112 120t-41.5 182v26q0 104 41.5 182t112 120t155.5 42h8q101 0 180 -58t111 -159h-154q-18 37 -55.5 59.5t-81.5 22.5h-8q-52 0 -92 -30t-52 -71q-4 -27 -4 -121q0 -95 4 -123q12 -41 52 -71
t92 -30h18q37 0 67 15t49 37.5t23 42.5v24h-145v125h292z" />
    <glyph glyph-name="Gbreve" unicode="&#x11e;" horiz-adv-x="711" 
d="M660 360v-96q0 -79 -37.5 -143t-102.5 -101t-146 -37h-18q-85 0 -155.5 42t-112 120t-41.5 182v26q0 104 41.5 182t112 120t155.5 42h8q101 0 180 -58t111 -159h-154q-18 37 -55.5 59.5t-81.5 22.5h-8q-52 0 -92 -30t-52 -71q-4 -27 -4 -121q0 -95 4 -123q12 -41 52 -71
t92 -30h18q37 0 67 15t49 37.5t23 42.5v24h-145v125h292zM252.5 768.5q-40.5 39.5 -42.5 96.5h82q2 -20 21 -37t52 -17t52 17t21 37h81q-2 -57 -42.5 -96.5t-111.5 -39.5q-72 0 -112.5 39.5z" />
    <glyph glyph-name="uni0122" unicode="&#x122;" horiz-adv-x="711" 
d="M660 360v-96q0 -79 -37.5 -143t-102.5 -101t-146 -37h-18q-85 0 -155.5 42t-112 120t-41.5 182v26q0 104 41.5 182t112 120t155.5 42h8q101 0 180 -58t111 -159h-154q-18 37 -55.5 59.5t-81.5 22.5h-8q-52 0 -92 -30t-52 -71q-4 -27 -4 -121q0 -95 4 -123q12 -41 52 -71
t92 -30h18q37 0 67 15t49 37.5t23 42.5v24h-145v125h292zM298 -59h132v-94l-131 -102h-1v196z" />
    <glyph glyph-name="Gdotaccent" unicode="&#x120;" horiz-adv-x="711" 
d="M660 360v-96q0 -79 -37.5 -143t-102.5 -101t-146 -37h-18q-85 0 -155.5 42t-112 120t-41.5 182v26q0 104 41.5 182t112 120t155.5 42h8q101 0 180 -58t111 -159h-154q-18 37 -55.5 59.5t-81.5 22.5h-8q-52 0 -92 -30t-52 -71q-4 -27 -4 -121q0 -95 4 -123q12 -41 52 -71
t92 -30h18q37 0 67 15t49 37.5t23 42.5v24h-145v125h292zM283 880h165v-136h-165v136z" />
    <glyph glyph-name="H" unicode="H" horiz-adv-x="719" 
d="M635 680v-680h-154v283h-243v-283h-154v680h154v-262h243v262h154z" />
    <glyph glyph-name="Hbar" unicode="&#x126;" horiz-adv-x="719" 
d="M679 494h-44v-494h-154v283h-243v-283h-154v494h-46v91h46v95h154v-95h243v95h154v-95h44v-91zM481 494h-243v-76h243v76z" />
    <glyph glyph-name="I" unicode="I" horiz-adv-x="321" 
d="M84 680h153v-680h-153v680z" />
    <glyph glyph-name="Iacute" unicode="&#xcd;" horiz-adv-x="321" 
d="M84 680h153v-680h-153v680zM178 881h158l-100 -137h-141z" />
    <glyph glyph-name="Icircumflex" unicode="&#xce;" horiz-adv-x="321" 
d="M84 680h153v-680h-153v680zM218 744l-58 73l-58 -73h-132l103 137h174l103 -137h-132z" />
    <glyph glyph-name="Idieresis" unicode="&#xcf;" horiz-adv-x="321" 
d="M84 680h153v-680h-153v680zM-34 880h147v-136h-147v136zM209 880h146v-136h-146v136z" />
    <glyph glyph-name="Idotaccent" unicode="&#x130;" horiz-adv-x="321" 
d="M84 680h153v-680h-153v680zM78 880h165v-136h-165v136z" />
    <glyph glyph-name="Igrave" unicode="&#xcc;" horiz-adv-x="321" 
d="M84 680h153v-680h-153v680zM-16 881h158l83 -137h-140z" />
    <glyph glyph-name="Imacron" unicode="&#x12a;" horiz-adv-x="321" 
d="M84 680h153v-680h-153v680zM12 864h297v-110h-297v110z" />
    <glyph glyph-name="Iogonek" unicode="&#x12e;" horiz-adv-x="321" 
d="M177.5 -51q-12.5 -19 -12.5 -36v-2q0 -17 11.5 -27.5t30.5 -10.5h3q12 0 27 3v-69q-12 -6 -30 -10t-34 -4h-4q-55 0 -82.5 23.5t-27.5 67.5v3q0 28 21 59.5t57 51.5l3 2h-56v680h153v-680l-22 -15q-25 -17 -37.5 -36z" />
    <glyph glyph-name="J" unicode="J" horiz-adv-x="440" 
d="M81 -12q-30 5 -51 13v128q37 -11 78 -11h8q36 0 59.5 15t33.5 40v507h154v-493q0 -58 -26 -104.5t-75.5 -73t-116.5 -26.5h-8q-26 0 -56 5z" />
    <glyph glyph-name="K" unicode="K" horiz-adv-x="681" 
d="M495 0l-257 347v-347h-154v680h154v-327l246 327h174l-252 -322l270 -358h-181z" />
    <glyph glyph-name="uni0136" unicode="&#x136;" horiz-adv-x="681" 
d="M495 0l-257 347v-347h-154v680h154v-327l246 327h174l-252 -322l270 -358h-181zM276 -59h132v-94l-131 -102h-1v196z" />
    <glyph glyph-name="L" unicode="L" horiz-adv-x="532" 
d="M488 134v-134h-404v680h154v-546h250z" />
    <glyph glyph-name="Lacute" unicode="&#x139;" horiz-adv-x="532" 
d="M488 134v-134h-404v680h154v-546h250zM175 881h158l-100 -137h-141z" />
    <glyph glyph-name="Lcaron" unicode="&#x13d;" horiz-adv-x="532" 
d="M488 134v-134h-404v680h154v-546h250zM314 680h114l-47 -208h-106z" />
    <glyph glyph-name="uni013B" unicode="&#x13b;" horiz-adv-x="532" 
d="M488 134v-134h-404v680h154v-546h250zM220 -59h132v-94l-131 -102h-1v196z" />
    <glyph glyph-name="Lslash" unicode="&#x141;" horiz-adv-x="532" 
d="M488 134v-134h-404v226l-64 -39v103l64 39v351h154v-257l112 68v-103l-112 -68v-186h250z" />
    <glyph glyph-name="M" unicode="M" horiz-adv-x="819" 
d="M735 698v-698h-148v361l-177 -182h-2l-176 182v-361h-148v698h2l323 -332l324 332h2z" />
    <glyph glyph-name="N" unicode="N" horiz-adv-x="723" 
d="M640 680v-698h-2l-408 384v-366h-146v698h2l408 -385v367h146z" />
    <glyph glyph-name="Nacute" unicode="&#x143;" horiz-adv-x="723" 
d="M640 680v-698h-2l-408 384v-366h-146v698h2l408 -385v367h146zM379 881h158l-100 -137h-141z" />
    <glyph glyph-name="Ncaron" unicode="&#x147;" horiz-adv-x="723" 
d="M640 680v-698h-2l-408 384v-366h-146v698h2l408 -385v367h146zM551 881l-103 -137h-174l-103 137h132l58 -73l58 73h132z" />
    <glyph glyph-name="uni0145" unicode="&#x145;" horiz-adv-x="723" 
d="M640 680v-698h-2l-408 384v-366h-146v698h2l408 -385v367h146zM295 -59h132v-94l-131 -102h-1v196z" />
    <glyph glyph-name="Eng" unicode="&#x14a;" horiz-adv-x="723" 
d="M357.5 -212q-30.5 5 -51.5 13v128q40 -11 79 -11h8q42 0 67.5 22t25.5 57v127l-256 242v-366h-146v698h2l408 -385v367h146v-692q0 -58 -26 -105t-75.5 -73.5t-116.5 -26.5h-8q-26 0 -56.5 5z" />
    <glyph glyph-name="Ntilde" unicode="&#xd1;" horiz-adv-x="723" 
d="M640 680v-698h-2l-408 384v-366h-146v698h2l408 -385v367h146zM285 883q36 0 78 -21l20 -10q30 -15 47 -15q15 0 21.5 11.5t7.5 34.5h89q-3 -69 -28.5 -104t-79.5 -35q-37 0 -79 22l-21 11q-24 13 -43 13q-31 0 -33 -46h-89q5 139 110 139z" />
    <glyph glyph-name="O" unicode="O" horiz-adv-x="721" 
d="M200.5 25q-70.5 42 -112 120t-41.5 182v26q0 104 41.5 182t112 120t155.5 42h8q85 0 156 -42t112.5 -120t41.5 -182v-26q0 -104 -41.5 -182t-112.5 -120t-156 -42h-8q-85 0 -155.5 42zM364 118q53 0 92.5 30t51.5 71q4 28 4 121q0 94 -4 121q-12 41 -51.5 71t-92.5 30h-8
q-52 0 -92 -30t-52 -71q-4 -27 -4 -121q0 -93 4 -121q12 -41 52 -71t92 -30h8z" />
    <glyph glyph-name="Oacute" unicode="&#xd3;" horiz-adv-x="721" 
d="M200.5 25q-70.5 42 -112 120t-41.5 182v26q0 104 41.5 182t112 120t155.5 42h8q85 0 156 -42t112.5 -120t41.5 -182v-26q0 -104 -41.5 -182t-112.5 -120t-156 -42h-8q-85 0 -155.5 42zM364 118q53 0 92.5 30t51.5 71q4 28 4 121q0 94 -4 121q-12 41 -51.5 71t-92.5 30h-8
q-52 0 -92 -30t-52 -71q-4 -27 -4 -121q0 -93 4 -121q12 -41 52 -71t92 -30h8zM378 881h158l-100 -137h-141z" />
    <glyph glyph-name="Ocircumflex" unicode="&#xd4;" horiz-adv-x="721" 
d="M200.5 25q-70.5 42 -112 120t-41.5 182v26q0 104 41.5 182t112 120t155.5 42h8q85 0 156 -42t112.5 -120t41.5 -182v-26q0 -104 -41.5 -182t-112.5 -120t-156 -42h-8q-85 0 -155.5 42zM364 118q53 0 92.5 30t51.5 71q4 28 4 121q0 94 -4 121q-12 41 -51.5 71t-92.5 30h-8
q-52 0 -92 -30t-52 -71q-4 -27 -4 -121q0 -93 4 -121q12 -41 52 -71t92 -30h8zM418 744l-58 73l-58 -73h-132l103 137h174l103 -137h-132z" />
    <glyph glyph-name="Odieresis" unicode="&#xd6;" horiz-adv-x="721" 
d="M200.5 25q-70.5 42 -112 120t-41.5 182v26q0 104 41.5 182t112 120t155.5 42h8q85 0 156 -42t112.5 -120t41.5 -182v-26q0 -104 -41.5 -182t-112.5 -120t-156 -42h-8q-85 0 -155.5 42zM364 118q53 0 92.5 30t51.5 71q4 28 4 121q0 94 -4 121q-12 41 -51.5 71t-92.5 30h-8
q-52 0 -92 -30t-52 -71q-4 -27 -4 -121q0 -93 4 -121q12 -41 52 -71t92 -30h8zM166 880h147v-136h-147v136zM409 880h146v-136h-146v136z" />
    <glyph glyph-name="Ograve" unicode="&#xd2;" horiz-adv-x="721" 
d="M200.5 25q-70.5 42 -112 120t-41.5 182v26q0 104 41.5 182t112 120t155.5 42h8q85 0 156 -42t112.5 -120t41.5 -182v-26q0 -104 -41.5 -182t-112.5 -120t-156 -42h-8q-85 0 -155.5 42zM364 118q53 0 92.5 30t51.5 71q4 28 4 121q0 94 -4 121q-12 41 -51.5 71t-92.5 30h-8
q-52 0 -92 -30t-52 -71q-4 -27 -4 -121q0 -93 4 -121q12 -41 52 -71t92 -30h8zM184 881h158l83 -137h-140z" />
    <glyph glyph-name="Ohungarumlaut" unicode="&#x150;" horiz-adv-x="721" 
d="M200.5 25q-70.5 42 -112 120t-41.5 182v26q0 104 41.5 182t112 120t155.5 42h8q85 0 156 -42t112.5 -120t41.5 -182v-26q0 -104 -41.5 -182t-112.5 -120t-156 -42h-8q-85 0 -155.5 42zM364 118q53 0 92.5 30t51.5 71q4 28 4 121q0 94 -4 121q-12 41 -51.5 71t-92.5 30h-8
q-52 0 -92 -30t-52 -71q-4 -27 -4 -121q0 -93 4 -121q12 -41 52 -71t92 -30h8zM273 881h124l-92 -137h-115zM462 881h124l-92 -137h-115z" />
    <glyph glyph-name="Omacron" unicode="&#x14c;" horiz-adv-x="721" 
d="M200.5 25q-70.5 42 -112 120t-41.5 182v26q0 104 41.5 182t112 120t155.5 42h8q85 0 156 -42t112.5 -120t41.5 -182v-26q0 -104 -41.5 -182t-112.5 -120t-156 -42h-8q-85 0 -155.5 42zM364 118q53 0 92.5 30t51.5 71q4 28 4 121q0 94 -4 121q-12 41 -51.5 71t-92.5 30h-8
q-52 0 -92 -30t-52 -71q-4 -27 -4 -121q0 -93 4 -121q12 -41 52 -71t92 -30h8zM211 864h297v-110h-297v110z" />
    <glyph glyph-name="Oslash" unicode="&#xd8;" horiz-adv-x="721" 
d="M651.5 491.5q22.5 -62.5 22.5 -138.5v-26q0 -104 -41.5 -182t-112.5 -120t-156 -42h-8q-96 0 -172 52l-25 -35h-85l58 81q-40 46 -62.5 108.5t-22.5 137.5v26q0 104 41.5 182t112 120t155.5 42h8q96 0 172 -52l25 35h84l-57 -80q41 -46 63.5 -108.5zM219 202l236 331
q-41 29 -91 29h-8q-52 0 -92 -30t-52 -71q-4 -27 -4 -121q0 -93 4 -121zM512 340q0 94 -4 121q-4 12 -7 18l-236 -331q40 -30 91 -30h8q53 0 92.5 30t51.5 71q4 28 4 121z" />
    <glyph glyph-name="Otilde" unicode="&#xd5;" horiz-adv-x="721" 
d="M200.5 25q-70.5 42 -112 120t-41.5 182v26q0 104 41.5 182t112 120t155.5 42h8q85 0 156 -42t112.5 -120t41.5 -182v-26q0 -104 -41.5 -182t-112.5 -120t-156 -42h-8q-85 0 -155.5 42zM364 118q53 0 92.5 30t51.5 71q4 28 4 121q0 94 -4 121q-12 41 -51.5 71t-92.5 30h-8
q-52 0 -92 -30t-52 -71q-4 -27 -4 -121q0 -93 4 -121q12 -41 52 -71t92 -30h8zM283 883q36 0 78 -21l20 -10q30 -15 47 -15q15 0 21.5 11.5t7.5 34.5h89q-3 -69 -28.5 -104t-79.5 -35q-37 0 -79 22l-21 11q-24 13 -43 13q-31 0 -33 -46h-89q5 139 110 139z" />
    <glyph glyph-name="OE" unicode="&#x152;" horiz-adv-x="984" 
d="M919 134v-134h-419v31q-65 -48 -145 -48h-8q-83 0 -151.5 42t-108.5 120t-40 182v26q0 104 40 182t108.5 120t151.5 42h8q81 0 145 -49v32h414v-134h-261v-128h230v-135h-230v-149h266zM446 141q37 23 54 58v282q-18 34 -54 57.5t-82 23.5h-8q-52 0 -92 -30t-52 -71
q-4 -27 -4 -121q0 -93 4 -121q12 -41 52 -71t92 -30h8q45 0 82 23z" />
    <glyph glyph-name="P" unicode="P" horiz-adv-x="619" 
d="M459.5 653q53.5 -27 85 -77t31.5 -117v-9q0 -67 -31.5 -117t-85 -77t-118.5 -27h-105v-229h-152v680h257q65 0 118.5 -27zM422 455q0 24 -2 38q-8 25 -29.5 39t-52.5 14h-102v-183h102q31 0 52.5 14t29.5 39q2 16 2 39z" />
    <glyph glyph-name="Thorn" unicode="&#xde;" horiz-adv-x="620" 
d="M459.5 541q53.5 -27 85 -77.5t31.5 -117.5v-8q0 -67 -31.5 -117t-84.5 -77t-118 -27h-105v-117h-153v680h153v-112h105q64 0 117.5 -27zM423 342q0 23 -2 39q-8 24 -29.5 38t-52.5 14h-102v-182h102q31 0 52.5 14t29.5 39q2 16 2 38z" />
    <glyph glyph-name="Q" unicode="Q" horiz-adv-x="721" 
d="M645.5 174q-28.5 -68 -78.5 -114l77 -110h-148l-34 49q-45 -16 -98 -16h-8q-85 0 -155.5 42t-112 120t-41.5 182v26q0 104 41.5 182t112 120t155.5 42h8q85 0 156 -42t112.5 -120t41.5 -182v-26q0 -85 -28.5 -153zM486 177q17 21 22 42q4 28 4 121q0 94 -4 121
q-12 41 -51.5 71t-92.5 30h-8q-52 0 -92 -30t-52 -71q-4 -27 -4 -121q0 -93 4 -121q12 -41 52 -71t92 -30h8q10 0 14 1l-81 116h148z" />
    <glyph glyph-name="R" unicode="R" horiz-adv-x="645" 
d="M463 0l-227 353v-353h-152v680h250q65 0 119.5 -26t86.5 -75t32 -114v-8q0 -63 -32.5 -110t-87.5 -72l183 -275h-172zM334 356q28 0 51 15.5t31 42.5q2 12 2 36t-2 36q-8 31 -30.5 45.5t-51.5 14.5h-98v-190h98z" />
    <glyph glyph-name="Racute" unicode="&#x154;" horiz-adv-x="645" 
d="M463 0l-227 353v-353h-152v680h250q65 0 119.5 -26t86.5 -75t32 -114v-8q0 -63 -32.5 -110t-87.5 -72l183 -275h-172zM334 356q28 0 51 15.5t31 42.5q2 12 2 36t-2 36q-8 31 -30.5 45.5t-51.5 14.5h-98v-190h98zM333 881h158l-100 -137h-141z" />
    <glyph glyph-name="Rcaron" unicode="&#x158;" horiz-adv-x="645" 
d="M463 0l-227 353v-353h-152v680h250q65 0 119.5 -26t86.5 -75t32 -114v-8q0 -63 -32.5 -110t-87.5 -72l183 -275h-172zM334 356q28 0 51 15.5t31 42.5q2 12 2 36t-2 36q-8 31 -30.5 45.5t-51.5 14.5h-98v-190h98zM506 881l-103 -137h-174l-103 137h132l58 -73l58 73h132z
" />
    <glyph glyph-name="uni0156" unicode="&#x156;" horiz-adv-x="645" 
d="M463 0l-227 353v-353h-152v680h250q65 0 119.5 -26t86.5 -75t32 -114v-8q0 -63 -32.5 -110t-87.5 -72l183 -275h-172zM334 356q28 0 51 15.5t31 42.5q2 12 2 36t-2 36q-8 31 -30.5 45.5t-51.5 14.5h-98v-190h98zM257 -59h132v-94l-131 -102h-1v196z" />
    <glyph glyph-name="S" unicode="S" horiz-adv-x="565" 
d="M161 11q-56 28 -86.5 76.5t-30.5 108.5h145q2 -41 30 -65.5t68 -24.5h3q41 0 65.5 24t21.5 66q-11 30 -69 63l-130 74q-48 27 -81 68.5t-33 100.5v3q0 53 28.5 97t77.5 69.5t106 25.5h6q76 0 132 -35.5t89 -88.5l-107 -76q-28 38 -54 56.5t-60 18.5h-3q-29 0 -50 -19
t-19 -51q6 -14 21 -26.5t42 -28.5l115 -65q58 -33 94.5 -77t36.5 -113v-3q0 -57 -29 -104t-80.5 -74.5t-117.5 -27.5h-3q-72 0 -128 28z" />
    <glyph glyph-name="Sacute" unicode="&#x15a;" horiz-adv-x="565" 
d="M161 11q-56 28 -86.5 76.5t-30.5 108.5h145q2 -41 30 -65.5t68 -24.5h3q41 0 65.5 24t21.5 66q-11 30 -69 63l-130 74q-48 27 -81 68.5t-33 100.5v3q0 53 28.5 97t77.5 69.5t106 25.5h6q76 0 132 -35.5t89 -88.5l-107 -76q-28 38 -54 56.5t-60 18.5h-3q-29 0 -50 -19
t-19 -51q6 -14 21 -26.5t42 -28.5l115 -65q58 -33 94.5 -77t36.5 -113v-3q0 -57 -29 -104t-80.5 -74.5t-117.5 -27.5h-3q-72 0 -128 28zM300 881h158l-100 -137h-141z" />
    <glyph glyph-name="Scaron" unicode="&#x160;" horiz-adv-x="565" 
d="M161 11q-56 28 -86.5 76.5t-30.5 108.5h145q2 -41 30 -65.5t68 -24.5h3q41 0 65.5 24t21.5 66q-11 30 -69 63l-130 74q-48 27 -81 68.5t-33 100.5v3q0 53 28.5 97t77.5 69.5t106 25.5h6q76 0 132 -35.5t89 -88.5l-107 -76q-28 38 -54 56.5t-60 18.5h-3q-29 0 -50 -19
t-19 -51q6 -14 21 -26.5t42 -28.5l115 -65q58 -33 94.5 -77t36.5 -113v-3q0 -57 -29 -104t-80.5 -74.5t-117.5 -27.5h-3q-72 0 -128 28zM473 881l-103 -137h-174l-103 137h132l58 -73l58 73h132z" />
    <glyph glyph-name="Scedilla" unicode="&#x15e;" horiz-adv-x="565" 
d="M482.5 305q36.5 -44 36.5 -113v-3q0 -54 -26 -99.5t-73 -73.5t-108 -32l-17 -44q37 -8 58.5 -30t21.5 -57v-3q0 -47 -31.5 -71.5t-87.5 -24.5h-4q-23 0 -46 6.5t-38 16.5v60q31 -19 72 -19h4q17 0 27 9t10 22v6q0 12 -12.5 20.5t-32.5 8.5h-36l41 102q-90 13 -144 71
t-53 139h145q2 -41 30 -65.5t68 -24.5h3q41 0 65.5 24t21.5 66q-11 30 -69 63l-130 74q-48 27 -81 68.5t-33 100.5v3q0 53 28.5 97t77.5 69.5t106 25.5h6q76 0 132 -35.5t89 -88.5l-107 -76q-28 38 -54 56.5t-60 18.5h-3q-29 0 -50 -19t-19 -51q6 -14 21 -26.5t42 -28.5
l115 -65q58 -33 94.5 -77z" />
    <glyph glyph-name="uni0218" unicode="&#x218;" horiz-adv-x="565" 
d="M161 11q-56 28 -86.5 76.5t-30.5 108.5h145q2 -41 30 -65.5t68 -24.5h3q41 0 65.5 24t21.5 66q-11 30 -69 63l-130 74q-48 27 -81 68.5t-33 100.5v3q0 53 28.5 97t77.5 69.5t106 25.5h6q76 0 132 -35.5t89 -88.5l-107 -76q-28 38 -54 56.5t-60 18.5h-3q-29 0 -50 -19
t-19 -51q6 -14 21 -26.5t42 -28.5l115 -65q58 -33 94.5 -77t36.5 -113v-3q0 -57 -29 -104t-80.5 -74.5t-117.5 -27.5h-3q-72 0 -128 28zM216 -59h132v-94l-131 -102h-1v196z" />
    <glyph glyph-name="uni1E9E" unicode="&#x1e9e;" horiz-adv-x="702" 
d="M618.5 336.5q45.5 -51.5 45.5 -121.5v-8q0 -99 -64 -156.5t-171 -57.5h-6q-22 0 -52.5 3t-44.5 7v118q10 -3 32 -5t39 -2h6q41 0 70.5 15t40.5 40q2 22 2 40q0 19 -2 39q-12 23 -42.5 40.5t-82.5 36.5l-62 24v2l92 195h-189v-546h-146v680h541l-124 -257
q72 -35 117.5 -86.5z" />
    <glyph glyph-name="T" unicode="T" horiz-adv-x="596" 
d="M547 546h-172v-546h-153v546h-173v134h498v-134z" />
    <glyph glyph-name="Tbar" unicode="&#x166;" horiz-adv-x="596" 
d="M375 546v-152h96v-108h-96v-286h-153v286h-96v108h96v152h-173v134h498v-134h-172z" />
    <glyph glyph-name="Tcaron" unicode="&#x164;" horiz-adv-x="596" 
d="M547 546h-172v-546h-153v546h-173v134h498v-134zM488 881l-103 -137h-174l-103 137h132l58 -73l58 73h132z" />
    <glyph glyph-name="uni0162" unicode="&#x162;" horiz-adv-x="596" 
d="M335 0l-24 -60q37 -8 58.5 -30t21.5 -57v-3q0 -47 -31.5 -71.5t-87.5 -24.5h-4q-23 0 -46 6.5t-38 16.5v60q31 -19 72 -19h4q17 0 27 9t10 22v6q0 12 -12.5 20.5t-32.5 8.5h-36l47 116h-41v546h-173v134h498v-134h-172v-546h-40z" />
    <glyph glyph-name="uni021A" unicode="&#x21a;" horiz-adv-x="596" 
d="M547 546h-172v-546h-153v546h-173v134h498v-134zM232 -59h132v-94l-131 -102h-1v196z" />
    <glyph glyph-name="U" unicode="U" horiz-adv-x="706" 
d="M211.5 17.5q-62.5 34.5 -98.5 91.5t-36 120v451h154v-473q8 -35 40 -62t78 -27h8q46 0 78.5 27.5t40.5 61.5v473h153v-451q0 -63 -36 -120t-98.5 -91.5t-137.5 -34.5h-8q-75 0 -137.5 34.5z" />
    <glyph glyph-name="Uacute" unicode="&#xda;" horiz-adv-x="706" 
d="M211.5 17.5q-62.5 34.5 -98.5 91.5t-36 120v451h154v-473q8 -35 40 -62t78 -27h8q46 0 78.5 27.5t40.5 61.5v473h153v-451q0 -63 -36 -120t-98.5 -91.5t-137.5 -34.5h-8q-75 0 -137.5 34.5zM370 881h158l-100 -137h-141z" />
    <glyph glyph-name="Ucircumflex" unicode="&#xdb;" horiz-adv-x="706" 
d="M211.5 17.5q-62.5 34.5 -98.5 91.5t-36 120v451h154v-473q8 -35 40 -62t78 -27h8q46 0 78.5 27.5t40.5 61.5v473h153v-451q0 -63 -36 -120t-98.5 -91.5t-137.5 -34.5h-8q-75 0 -137.5 34.5zM411 744l-58 73l-58 -73h-132l103 137h174l103 -137h-132z" />
    <glyph glyph-name="Udieresis" unicode="&#xdc;" horiz-adv-x="706" 
d="M211.5 17.5q-62.5 34.5 -98.5 91.5t-36 120v451h154v-473q8 -35 40 -62t78 -27h8q46 0 78.5 27.5t40.5 61.5v473h153v-451q0 -63 -36 -120t-98.5 -91.5t-137.5 -34.5h-8q-75 0 -137.5 34.5zM158 880h147v-136h-147v136zM401 880h146v-136h-146v136z" />
    <glyph glyph-name="Ugrave" unicode="&#xd9;" horiz-adv-x="706" 
d="M211.5 17.5q-62.5 34.5 -98.5 91.5t-36 120v451h154v-473q8 -35 40 -62t78 -27h8q46 0 78.5 27.5t40.5 61.5v473h153v-451q0 -63 -36 -120t-98.5 -91.5t-137.5 -34.5h-8q-75 0 -137.5 34.5zM177 881h158l83 -137h-140z" />
    <glyph glyph-name="Uhungarumlaut" unicode="&#x170;" horiz-adv-x="706" 
d="M211.5 17.5q-62.5 34.5 -98.5 91.5t-36 120v451h154v-473q8 -35 40 -62t78 -27h8q46 0 78.5 27.5t40.5 61.5v473h153v-451q0 -63 -36 -120t-98.5 -91.5t-137.5 -34.5h-8q-75 0 -137.5 34.5zM266 881h124l-92 -137h-115zM455 881h124l-92 -137h-115z" />
    <glyph glyph-name="Umacron" unicode="&#x16a;" horiz-adv-x="706" 
d="M211.5 17.5q-62.5 34.5 -98.5 91.5t-36 120v451h154v-473q8 -35 40 -62t78 -27h8q46 0 78.5 27.5t40.5 61.5v473h153v-451q0 -63 -36 -120t-98.5 -91.5t-137.5 -34.5h-8q-75 0 -137.5 34.5zM204 864h297v-110h-297v110z" />
    <glyph glyph-name="Uogonek" unicode="&#x172;" horiz-adv-x="706" 
d="M629 680v-451q0 -57 -29 -108.5t-80 -87.5l-43 -41q-39 -36 -39 -79v-2q0 -17 11.5 -27.5t30.5 -10.5h3q12 0 27 3v-69q-12 -6 -30 -10t-34 -4h-4q-55 0 -82.5 23.5t-27.5 67.5v3q0 22 11.5 48t33.5 49q-7 -1 -20 -1h-8q-75 0 -137.5 34.5t-98.5 91.5t-36 120v451h154
v-473q8 -35 40 -62t78 -27h8q46 0 78.5 27.5t40.5 61.5v473h153z" />
    <glyph glyph-name="Uring" unicode="&#x16e;" horiz-adv-x="706" 
d="M211.5 17.5q-62.5 34.5 -98.5 91.5t-36 120v451h154v-473q8 -35 40 -62t78 -27h8q46 0 78.5 27.5t40.5 61.5v473h153v-451q0 -63 -36 -120t-98.5 -91.5t-137.5 -34.5h-8q-75 0 -137.5 34.5zM269 708.5q-35 33.5 -35 80.5t35 80.5t84 33.5t83.5 -33.5t34.5 -80.5
t-34.5 -80.5t-83.5 -33.5t-84 33.5zM387.5 754.5q14.5 14.5 14.5 34.5t-14.5 34t-34.5 14t-34.5 -14t-14.5 -34t14.5 -34.5t34.5 -14.5t34.5 14.5z" />
    <glyph glyph-name="V" unicode="V" horiz-adv-x="675" 
d="M666 680l-327 -705h-2l-328 705h159l175 -383l173 383h150z" />
    <glyph glyph-name="W" unicode="W" horiz-adv-x="916" 
d="M905 680l-278 -705h-2l-169 376l-165 -376h-2l-278 705h159l138 -354l152 354h1l161 -355l134 355h149z" />
    <glyph glyph-name="Wacute" unicode="&#x1e82;" horiz-adv-x="916" 
d="M905 680l-278 -705h-2l-169 376l-165 -376h-2l-278 705h159l138 -354l152 354h1l161 -355l134 355h149zM475 881h158l-100 -137h-141z" />
    <glyph glyph-name="Wcircumflex" unicode="&#x174;" horiz-adv-x="916" 
d="M905 680l-278 -705h-2l-169 376l-165 -376h-2l-278 705h159l138 -354l152 354h1l161 -355l134 355h149zM516 744l-58 73l-58 -73h-132l103 137h174l103 -137h-132z" />
    <glyph glyph-name="Wdieresis" unicode="&#x1e84;" horiz-adv-x="916" 
d="M905 680l-278 -705h-2l-169 376l-165 -376h-2l-278 705h159l138 -354l152 354h1l161 -355l134 355h149zM263 880h147v-136h-147v136zM506 880h146v-136h-146v136z" />
    <glyph glyph-name="Wgrave" unicode="&#x1e80;" horiz-adv-x="916" 
d="M905 680l-278 -705h-2l-169 376l-165 -376h-2l-278 705h159l138 -354l152 354h1l161 -355l134 355h149zM282 881h158l83 -137h-140z" />
    <glyph glyph-name="X" unicode="X" horiz-adv-x="707" 
d="M515 0l-165 251l-164 -251h-169l239 350l-226 330h174l154 -233l150 233h169l-222 -330l235 -350h-175z" />
    <glyph glyph-name="Y" unicode="Y" horiz-adv-x="652" 
d="M406 287v-287h-153v275l-244 405h168l152 -255l152 255h162z" />
    <glyph glyph-name="Yacute" unicode="&#xdd;" horiz-adv-x="652" 
d="M406 287v-287h-153v275l-244 405h168l152 -255l152 255h162zM344 881h158l-100 -137h-141z" />
    <glyph glyph-name="Ycircumflex" unicode="&#x176;" horiz-adv-x="652" 
d="M406 287v-287h-153v275l-244 405h168l152 -255l152 255h162zM384 744l-58 73l-58 -73h-132l103 137h174l103 -137h-132z" />
    <glyph glyph-name="Ydieresis" unicode="&#x178;" horiz-adv-x="652" 
d="M406 287v-287h-153v275l-244 405h168l152 -255l152 255h162zM132 880h147v-136h-147v136zM375 880h146v-136h-146v136z" />
    <glyph glyph-name="Ygrave" unicode="&#x1ef2;" horiz-adv-x="652" 
d="M406 287v-287h-153v275l-244 405h168l152 -255l152 255h162zM150 881h158l83 -137h-140z" />
    <glyph glyph-name="Z" unicode="Z" horiz-adv-x="604" 
d="M593 678l-333 -544h308v-134h-558v2l334 544h-308v134h557v-2z" />
    <glyph glyph-name="Zacute" unicode="&#x179;" horiz-adv-x="604" 
d="M593 678l-333 -544h308v-134h-558v2l334 544h-308v134h557v-2zM321 881h158l-100 -137h-141z" />
    <glyph glyph-name="Zcaron" unicode="&#x17d;" horiz-adv-x="604" 
d="M593 678l-333 -544h308v-134h-558v2l334 544h-308v134h557v-2zM493 881l-103 -137h-174l-103 137h132l58 -73l58 73h132z" />
    <glyph glyph-name="Zdotaccent" unicode="&#x17b;" horiz-adv-x="604" 
d="M593 678l-333 -544h308v-134h-558v2l334 544h-308v134h557v-2zM221 880h165v-136h-165v136z" />
    <glyph glyph-name="a" unicode="a" horiz-adv-x="597" 
d="M522 493v-493h-137v40q-51 -54 -126 -54h-8q-55 0 -102.5 30.5t-76 88t-28.5 134.5v16q0 76 28.5 133t76 88t102.5 31h8q75 0 126 -54v40h137zM343 119.5q20 10.5 33 26.5v201q-13 16 -33 26.5t-45 10.5h-8q-33 0 -56.5 -16.5t-32.5 -37.5q-5 -22 -5 -83q0 -60 5 -83
q9 -22 32.5 -38.5t56.5 -16.5h8q25 0 45 10.5z" />
    <glyph glyph-name="aacute" unicode="&#xe1;" horiz-adv-x="597" 
d="M522 493v-493h-137v40q-51 -54 -126 -54h-8q-55 0 -102.5 30.5t-76 88t-28.5 134.5v16q0 76 28.5 133t76 88t102.5 31h8q75 0 126 -54v40h137zM343 119.5q20 10.5 33 26.5v201q-13 16 -33 26.5t-45 10.5h-8q-33 0 -56.5 -16.5t-32.5 -37.5q-5 -22 -5 -83q0 -60 5 -83
q9 -22 32.5 -38.5t56.5 -16.5h8q25 0 45 10.5zM310 710h158l-99 -142h-142z" />
    <glyph glyph-name="abreve" unicode="&#x103;" horiz-adv-x="597" 
d="M522 493v-493h-137v40q-51 -54 -126 -54h-8q-55 0 -102.5 30.5t-76 88t-28.5 134.5v16q0 76 28.5 133t76 88t102.5 31h8q75 0 126 -54v40h137zM343 119.5q20 10.5 33 26.5v201q-13 16 -33 26.5t-45 10.5h-8q-33 0 -56.5 -16.5t-32.5 -37.5q-5 -22 -5 -83q0 -60 5 -83
q9 -22 32.5 -38.5t56.5 -16.5h8q25 0 45 10.5zM214 578.5q-36 19.5 -55 52.5t-19 72h85q2 -23 22 -39.5t52 -16.5t51.5 16.5t21.5 39.5h85q0 -39 -19 -71.5t-55 -52.5t-84 -20q-49 0 -85 19.5z" />
    <glyph glyph-name="acircumflex" unicode="&#xe2;" horiz-adv-x="597" 
d="M522 493v-493h-137v40q-51 -54 -126 -54h-8q-55 0 -102.5 30.5t-76 88t-28.5 134.5v16q0 76 28.5 133t76 88t102.5 31h8q75 0 126 -54v40h137zM343 119.5q20 10.5 33 26.5v201q-13 16 -33 26.5t-45 10.5h-8q-33 0 -56.5 -16.5t-32.5 -37.5q-5 -22 -5 -83q0 -60 5 -83
q9 -22 32.5 -38.5t56.5 -16.5h8q25 0 45 10.5zM356 568l-58 75l-58 -75h-132l103 142h174l103 -142h-132z" />
    <glyph glyph-name="adieresis" unicode="&#xe4;" horiz-adv-x="597" 
d="M522 493v-493h-137v40q-51 -54 -126 -54h-8q-55 0 -102.5 30.5t-76 88t-28.5 134.5v16q0 76 28.5 133t76 88t102.5 31h8q75 0 126 -54v40h137zM343 119.5q20 10.5 33 26.5v201q-13 16 -33 26.5t-45 10.5h-8q-33 0 -56.5 -16.5t-32.5 -37.5q-5 -22 -5 -83q0 -60 5 -83
q9 -22 32.5 -38.5t56.5 -16.5h8q25 0 45 10.5zM109 709h147v-138h-147v138zM342 709h146v-138h-146v138z" />
    <glyph glyph-name="agrave" unicode="&#xe0;" horiz-adv-x="597" 
d="M522 493v-493h-137v40q-51 -54 -126 -54h-8q-55 0 -102.5 30.5t-76 88t-28.5 134.5v16q0 76 28.5 133t76 88t102.5 31h8q75 0 126 -54v40h137zM343 119.5q20 10.5 33 26.5v201q-13 16 -33 26.5t-45 10.5h-8q-33 0 -56.5 -16.5t-32.5 -37.5q-5 -22 -5 -83q0 -60 5 -83
q9 -22 32.5 -38.5t56.5 -16.5h8q25 0 45 10.5zM127 710h158l83 -142h-141z" />
    <glyph glyph-name="amacron" unicode="&#x101;" horiz-adv-x="597" 
d="M522 493v-493h-137v40q-51 -54 -126 -54h-8q-55 0 -102.5 30.5t-76 88t-28.5 134.5v16q0 76 28.5 133t76 88t102.5 31h8q75 0 126 -54v40h137zM343 119.5q20 10.5 33 26.5v201q-13 16 -33 26.5t-45 10.5h-8q-33 0 -56.5 -16.5t-32.5 -37.5q-5 -22 -5 -83q0 -60 5 -83
q9 -22 32.5 -38.5t56.5 -16.5h8q25 0 45 10.5zM150 689h297v-110h-297v110z" />
    <glyph glyph-name="aogonek" unicode="&#x105;" horiz-adv-x="597" 
d="M462.5 -51q-12.5 -19 -12.5 -36v-2q0 -17 11.5 -27.5t30.5 -10.5h3q12 0 27 3v-69q-12 -6 -30 -10t-34 -4h-4q-55 0 -82.5 23.5t-27.5 67.5v3q0 28 21 59.5t57 51.5l3 2h-40v40q-51 -54 -126 -54h-8q-55 0 -102.5 30.5t-76 88t-28.5 134.5v16q0 76 28.5 133t76 88
t102.5 31h8q75 0 126 -54v40h137v-493l-22 -15q-25 -17 -37.5 -36zM343 119.5q20 10.5 33 26.5v201q-13 16 -33 26.5t-45 10.5h-8q-33 0 -56.5 -16.5t-32.5 -37.5q-5 -22 -5 -83q0 -60 5 -83q9 -22 32.5 -38.5t56.5 -16.5h8q25 0 45 10.5z" />
    <glyph glyph-name="aring" unicode="&#xe5;" horiz-adv-x="597" 
d="M522 493v-493h-137v40q-51 -54 -126 -54h-8q-55 0 -102.5 30.5t-76 88t-28.5 134.5v16q0 76 28.5 133t76 88t102.5 31h8q75 0 126 -54v40h137zM343 119.5q20 10.5 33 26.5v201q-13 16 -33 26.5t-45 10.5h-8q-33 0 -56.5 -16.5t-32.5 -37.5q-5 -22 -5 -83q0 -60 5 -83
q9 -22 32.5 -38.5t56.5 -16.5h8q25 0 45 10.5zM213.5 595q-35.5 33 -35.5 81q0 47 35.5 80t85.5 33t85.5 -33t35.5 -80q0 -48 -35.5 -81t-85.5 -33t-85.5 33zM333.5 641.5q14.5 14.5 14.5 34.5t-14.5 34t-34.5 14t-34.5 -14t-14.5 -34t14.5 -34.5t34.5 -14.5t34.5 14.5z" />
    <glyph glyph-name="atilde" unicode="&#xe3;" horiz-adv-x="597" 
d="M522 493v-493h-137v40q-51 -54 -126 -54h-8q-55 0 -102.5 30.5t-76 88t-28.5 134.5v16q0 76 28.5 133t76 88t102.5 31h8q75 0 126 -54v40h137zM343 119.5q20 10.5 33 26.5v201q-13 16 -33 26.5t-45 10.5h-8q-33 0 -56.5 -16.5t-32.5 -37.5q-5 -22 -5 -83q0 -60 5 -83
q9 -22 32.5 -38.5t56.5 -16.5h8q25 0 45 10.5zM223 712q34 0 78 -22l20 -10q30 -15 46 -15q13 0 20 12.5t8 34.5h87q-3 -143 -108 -143q-39 0 -79 21l-21 11q-14 8 -22.5 11t-18.5 3q-13 0 -22.5 -12.5t-10.5 -33.5h-87q3 143 110 143z" />
    <glyph glyph-name="ae" unicode="&#xe6;" horiz-adv-x="869" 
d="M823 205h-329q0 -11 2 -37q7 -30 33.5 -49.5t61.5 -19.5h6q54 0 78 45h143q-23 -78 -84.5 -119.5t-138.5 -41.5h-6q-46 0 -88 16t-75 47q-37 -33 -80 -48t-95 -15h-5q-53 0 -99.5 19.5t-74.5 55t-28 81.5v9q0 68 53 109.5t148 41.5h103v66q-8 12 -24 21.5t-41 9.5h-3
q-28 0 -47.5 -13t-28.5 -33h-148q17 74 77 116t140 42h5q103 0 159 -50q31 25 69 38.5t80 13.5h6q63 0 116.5 -30t85.5 -85.5t32 -129.5q0 -27 -3 -60zM685 327q-8 30 -32 48.5t-60 18.5h-6q-33 0 -58.5 -19t-32.5 -46l-2 -30h191v28zM365 140q-12 30 -15 65h-93
q-25 0 -42 -9.5t-25 -22.5q-1 -7 -1 -23t1 -23q8 -13 27 -22t46 -9h5q56 0 97 44z" />
    <glyph glyph-name="b" unicode="b" horiz-adv-x="599" 
d="M448.5 476q47.5 -31 76 -88t28.5 -133v-16q0 -77 -28.5 -134.5t-76 -88t-102.5 -30.5h-8q-76 0 -127 54v-40h-136v710h146v-247q49 44 117 44h8q55 0 102.5 -31zM401 247q0 61 -5 83q-9 21 -32.5 37.5t-56.5 16.5h-8q-25 0 -45 -10.5t-33 -26.5v-201q13 -16 33 -26.5
t45 -10.5h8q33 0 56.5 16.5t32.5 38.5q5 23 5 83z" />
    <glyph glyph-name="c" unicode="c" horiz-adv-x="499" 
d="M175.5 12q-58.5 29 -95 87t-36.5 140v16q0 82 36.5 139.5t95 86.5t124.5 29h6q40 0 78.5 -12.5t59.5 -28.5v-132q-30 23 -63 36.5t-64 13.5h-8q-38 0 -67 -16.5t-41 -37.5q-5 -22 -5 -86q0 -63 5 -86q12 -22 41 -38.5t67 -16.5h8q60 0 127 51v-132q-21 -16 -59.5 -29
t-78.5 -13h-6q-66 0 -124.5 29z" />
    <glyph glyph-name="cacute" unicode="&#x107;" horiz-adv-x="499" 
d="M175.5 12q-58.5 29 -95 87t-36.5 140v16q0 82 36.5 139.5t95 86.5t124.5 29h6q40 0 78.5 -12.5t59.5 -28.5v-132q-30 23 -63 36.5t-64 13.5h-8q-38 0 -67 -16.5t-41 -37.5q-5 -22 -5 -86q0 -63 5 -86q12 -22 41 -38.5t67 -16.5h8q60 0 127 51v-132q-21 -16 -59.5 -29
t-78.5 -13h-6q-66 0 -124.5 29zM296 710h158l-99 -142h-142z" />
    <glyph glyph-name="ccaron" unicode="&#x10d;" horiz-adv-x="499" 
d="M175.5 12q-58.5 29 -95 87t-36.5 140v16q0 82 36.5 139.5t95 86.5t124.5 29h6q40 0 78.5 -12.5t59.5 -28.5v-132q-30 23 -63 36.5t-64 13.5h-8q-38 0 -67 -16.5t-41 -37.5q-5 -22 -5 -86q0 -63 5 -86q12 -22 41 -38.5t67 -16.5h8q60 0 127 51v-132q-21 -16 -59.5 -29
t-78.5 -13h-6q-66 0 -124.5 29zM473 710l-103 -142h-174l-103 142h132l58 -75l58 75h132z" />
    <glyph glyph-name="ccedilla" unicode="&#xe7;" horiz-adv-x="499" 
d="M242 370.5q-29 -16.5 -41 -37.5q-5 -22 -5 -86q0 -63 5 -86q12 -22 41 -38.5t67 -16.5h8q60 0 127 51v-132q-20 -15 -56.5 -28t-74.5 -14l-17 -43q37 -8 58.5 -30t21.5 -57v-3q0 -47 -31.5 -71.5t-87.5 -24.5h-4q-23 0 -46 6.5t-38 16.5v60q31 -19 72 -19h4q17 0 27 9
t10 22v6q0 12 -12.5 20.5t-32.5 8.5h-36l42 105q-85 17 -142 81.5t-57 168.5v16q0 82 36.5 139.5t95 86.5t124.5 29h6q40 0 78.5 -12.5t59.5 -28.5v-132q-30 23 -63 36.5t-64 13.5h-8q-38 0 -67 -16.5z" />
    <glyph glyph-name="cdotaccent" unicode="&#x10b;" horiz-adv-x="499" 
d="M175.5 12q-58.5 29 -95 87t-36.5 140v16q0 82 36.5 139.5t95 86.5t124.5 29h6q40 0 78.5 -12.5t59.5 -28.5v-132q-30 23 -63 36.5t-64 13.5h-8q-38 0 -67 -16.5t-41 -37.5q-5 -22 -5 -86q0 -63 5 -86q12 -22 41 -38.5t67 -16.5h8q60 0 127 51v-132q-21 -16 -59.5 -29
t-78.5 -13h-6q-66 0 -124.5 29zM202 709h163v-140h-163v140z" />
    <glyph glyph-name="d" unicode="d" horiz-adv-x="599" 
d="M524 710v-710h-136v40q-51 -54 -127 -54h-8q-55 0 -102.5 30.5t-76 88t-28.5 134.5v16q0 76 28.5 133t76 88t102.5 31h8q68 0 117 -44v247h146zM345 119.5q20 10.5 33 26.5v201q-13 16 -33 26.5t-45 10.5h-8q-33 0 -56.5 -16.5t-32.5 -37.5q-5 -22 -5 -83q0 -60 5 -83
q9 -22 32.5 -38.5t56.5 -16.5h8q25 0 45 10.5z" />
    <glyph glyph-name="eth" unicode="&#xf0;" horiz-adv-x="584" 
d="M517 411q30 -77 30 -136v-58q0 -66 -34 -119.5t-91 -84t-123 -30.5h-6q-66 0 -123.5 30.5t-91.5 84t-34 119.5v8q0 65 32 117t85 82t113 30h6q47 0 83 -18q-23 42 -51 84l-123 -40l-20 63l102 33q-44 54 -98 104h157q36 -31 64 -65l87 28l19 -62l-63 -21q50 -72 80 -149z
M401 221q0 33 -2 47q-7 26 -36 47.5t-64 21.5h-6q-36 0 -64.5 -21.5t-36.5 -47.5q-2 -14 -2 -47q0 -32 2 -46q8 -26 36.5 -47.5t64.5 -21.5h6q35 0 64 21.5t36 47.5q2 14 2 46z" />
    <glyph glyph-name="dcaron" unicode="&#x10f;" horiz-adv-x="717" 
d="M524 710v-710h-136v40q-51 -54 -127 -54h-8q-55 0 -102.5 30.5t-76 88t-28.5 134.5v16q0 76 28.5 133t76 88t102.5 31h8q68 0 117 -44v247h146zM345 119.5q20 10.5 33 26.5v201q-13 16 -33 26.5t-45 10.5h-8q-33 0 -56.5 -16.5t-32.5 -37.5q-5 -22 -5 -83q0 -60 5 -83
q9 -22 32.5 -38.5t56.5 -16.5h8q25 0 45 10.5zM610 710h114l-47 -208h-106z" />
    <glyph glyph-name="dcroat" unicode="&#x111;" horiz-adv-x="599" 
d="M573 555h-49v-555h-136v40q-51 -54 -127 -54h-8q-55 0 -102.5 30.5t-76 88t-28.5 134.5v16q0 76 28.5 133t76 88t102.5 31h8q68 0 117 -44v92h-101v80h101v75h146v-75h49v-80zM345 119.5q20 10.5 33 26.5v201q-13 16 -33 26.5t-45 10.5h-8q-33 0 -56.5 -16.5t-32.5 -37.5
q-5 -22 -5 -83q0 -60 5 -83q9 -22 32.5 -38.5t56.5 -16.5h8q25 0 45 10.5z" />
    <glyph glyph-name="e" unicode="e" horiz-adv-x="572" 
d="M526 204h-336l2 -36q8 -30 35 -49.5t64 -19.5h6q28 0 49 12t32 33h143q-23 -78 -85 -119.5t-141 -41.5h-6q-65 0 -121.5 31t-90 89t-33.5 136v16q0 77 33 135t88 89t121 31h6q64 0 118 -29.5t86.5 -85.5t32.5 -130q0 -28 -3 -61zM389 327q-8 30 -33 48.5t-62 18.5h-6
q-36 0 -62 -18.5t-34 -46.5q-1 -10 -1 -30h198v28z" />
    <glyph glyph-name="eacute" unicode="&#xe9;" horiz-adv-x="572" 
d="M526 204h-336l2 -36q8 -30 35 -49.5t64 -19.5h6q28 0 49 12t32 33h143q-23 -78 -85 -119.5t-141 -41.5h-6q-65 0 -121.5 31t-90 89t-33.5 136v16q0 77 33 135t88 89t121 31h6q64 0 118 -29.5t86.5 -85.5t32.5 -130q0 -28 -3 -61zM389 327q-8 30 -33 48.5t-62 18.5h-6
q-36 0 -62 -18.5t-34 -46.5q-1 -10 -1 -30h198v28zM309 710h158l-99 -142h-142z" />
    <glyph glyph-name="ecaron" unicode="&#x11b;" horiz-adv-x="572" 
d="M526 204h-336l2 -36q8 -30 35 -49.5t64 -19.5h6q28 0 49 12t32 33h143q-23 -78 -85 -119.5t-141 -41.5h-6q-65 0 -121.5 31t-90 89t-33.5 136v16q0 77 33 135t88 89t121 31h6q64 0 118 -29.5t86.5 -85.5t32.5 -130q0 -28 -3 -61zM389 327q-8 30 -33 48.5t-62 18.5h-6
q-36 0 -62 -18.5t-34 -46.5q-1 -10 -1 -30h198v28zM486 710l-103 -142h-174l-103 142h132l58 -75l58 75h132z" />
    <glyph glyph-name="ecircumflex" unicode="&#xea;" horiz-adv-x="572" 
d="M526 204h-336l2 -36q8 -30 35 -49.5t64 -19.5h6q28 0 49 12t32 33h143q-23 -78 -85 -119.5t-141 -41.5h-6q-65 0 -121.5 31t-90 89t-33.5 136v16q0 77 33 135t88 89t121 31h6q64 0 118 -29.5t86.5 -85.5t32.5 -130q0 -28 -3 -61zM389 327q-8 30 -33 48.5t-62 18.5h-6
q-36 0 -62 -18.5t-34 -46.5q-1 -10 -1 -30h198v28zM354 568l-58 75l-58 -75h-132l103 142h174l103 -142h-132z" />
    <glyph glyph-name="edieresis" unicode="&#xeb;" horiz-adv-x="572" 
d="M526 204h-336l2 -36q8 -30 35 -49.5t64 -19.5h6q28 0 49 12t32 33h143q-23 -78 -85 -119.5t-141 -41.5h-6q-65 0 -121.5 31t-90 89t-33.5 136v16q0 77 33 135t88 89t121 31h6q64 0 118 -29.5t86.5 -85.5t32.5 -130q0 -28 -3 -61zM389 327q-8 30 -33 48.5t-62 18.5h-6
q-36 0 -62 -18.5t-34 -46.5q-1 -10 -1 -30h198v28zM108 709h147v-138h-147v138zM341 709h146v-138h-146v138z" />
    <glyph glyph-name="edotaccent" unicode="&#x117;" horiz-adv-x="572" 
d="M526 204h-336l2 -36q8 -30 35 -49.5t64 -19.5h6q28 0 49 12t32 33h143q-23 -78 -85 -119.5t-141 -41.5h-6q-65 0 -121.5 31t-90 89t-33.5 136v16q0 77 33 135t88 89t121 31h6q64 0 118 -29.5t86.5 -85.5t32.5 -130q0 -28 -3 -61zM389 327q-8 30 -33 48.5t-62 18.5h-6
q-36 0 -62 -18.5t-34 -46.5q-1 -10 -1 -30h198v28zM216 709h163v-140h-163v140z" />
    <glyph glyph-name="egrave" unicode="&#xe8;" horiz-adv-x="572" 
d="M526 204h-336l2 -36q8 -30 35 -49.5t64 -19.5h6q28 0 49 12t32 33h143q-23 -78 -85 -119.5t-141 -41.5h-6q-65 0 -121.5 31t-90 89t-33.5 136v16q0 77 33 135t88 89t121 31h6q64 0 118 -29.5t86.5 -85.5t32.5 -130q0 -28 -3 -61zM389 327q-8 30 -33 48.5t-62 18.5h-6
q-36 0 -62 -18.5t-34 -46.5q-1 -10 -1 -30h198v28zM126 710h158l83 -142h-141z" />
    <glyph glyph-name="emacron" unicode="&#x113;" horiz-adv-x="572" 
d="M526 204h-336l2 -36q8 -30 35 -49.5t64 -19.5h6q28 0 49 12t32 33h143q-23 -78 -85 -119.5t-141 -41.5h-6q-65 0 -121.5 31t-90 89t-33.5 136v16q0 77 33 135t88 89t121 31h6q64 0 118 -29.5t86.5 -85.5t32.5 -130q0 -28 -3 -61zM389 327q-8 30 -33 48.5t-62 18.5h-6
q-36 0 -62 -18.5t-34 -46.5q-1 -10 -1 -30h198v28zM148 689h297v-110h-297v110z" />
    <glyph glyph-name="eogonek" unicode="&#x119;" horiz-adv-x="572" 
d="M526 204h-336l2 -36q8 -30 35 -49.5t64 -19.5h6q28 0 49 12t32 33h143q-26 -86 -99 -128l-25 -24q-39 -36 -39 -79v-2q0 -17 11.5 -27.5t30.5 -10.5h3q12 0 27 3v-69q-12 -6 -30 -10t-34 -4h-4q-55 0 -82.5 23.5t-27.5 67.5v3q0 22 11.5 47.5t32.5 48.5h-1h-6
q-65 0 -121.5 31t-90 89t-33.5 136v16q0 77 33 135t88 89t121 31h6q64 0 118 -29.5t86.5 -85.5t32.5 -130q0 -28 -3 -61zM389 327q-8 30 -33 48.5t-62 18.5h-6q-36 0 -62 -18.5t-34 -46.5q-1 -10 -1 -30h198v28z" />
    <glyph glyph-name="f" unicode="f" horiz-adv-x="378" 
d="M275 588.5q-14 -8.5 -18 -24.5v-71h76v-109h-76v-384h-147v384h-64v109h64v78q0 67 45.5 106t114.5 39q37 0 63 -8v-113q-12 2 -25 2q-19 0 -33 -8.5z" />
    <glyph glyph-name="g" unicode="g" horiz-adv-x="587" 
d="M515 493v-497q0 -58 -29.5 -107t-81.5 -77.5t-116 -28.5h-6q-86 0 -148.5 42.5t-73.5 121.5h145q7 -23 28 -36t50 -13h6q30 0 51.5 16.5t28.5 43.5v81q-48 -43 -113 -43h-8q-54 0 -100 30t-74 86.5t-28 131.5v16q0 74 28 130.5t74 86.5t100 30h8q73 0 122 -52v38h137z
M338.5 130q19.5 11 30.5 27v189q-11 16 -30.5 27t-43.5 11h-8q-30 0 -52 -16t-32 -38q-5 -22 -5 -78t5 -78q8 -22 30.5 -38.5t53.5 -16.5h8q24 0 43.5 11z" />
    <glyph glyph-name="gbreve" unicode="&#x11f;" horiz-adv-x="587" 
d="M515 493v-497q0 -58 -29.5 -107t-81.5 -77.5t-116 -28.5h-6q-86 0 -148.5 42.5t-73.5 121.5h145q7 -23 28 -36t50 -13h6q30 0 51.5 16.5t28.5 43.5v81q-48 -43 -113 -43h-8q-54 0 -100 30t-74 86.5t-28 131.5v16q0 74 28 130.5t74 86.5t100 30h8q73 0 122 -52v38h137z
M338.5 130q19.5 11 30.5 27v189q-11 16 -30.5 27t-43.5 11h-8q-30 0 -52 -16t-32 -38q-5 -22 -5 -78t5 -78q8 -22 30.5 -38.5t53.5 -16.5h8q24 0 43.5 11zM208 578.5q-36 19.5 -55 52.5t-19 72h85q2 -23 22 -39.5t52 -16.5t51.5 16.5t21.5 39.5h85q0 -39 -19 -71.5
t-55 -52.5t-84 -20q-49 0 -85 19.5z" />
    <glyph glyph-name="uni0123" unicode="&#x123;" horiz-adv-x="587" 
d="M515 493v-497q0 -58 -29.5 -107t-81.5 -77.5t-116 -28.5h-6q-86 0 -148.5 42.5t-73.5 121.5h145q7 -23 28 -36t50 -13h6q30 0 51.5 16.5t28.5 43.5v81q-48 -43 -113 -43h-8q-54 0 -100 30t-74 86.5t-28 131.5v16q0 74 28 130.5t74 86.5t100 30h8q73 0 122 -52v38h137z
M338.5 130q19.5 11 30.5 27v189q-11 16 -30.5 27t-43.5 11h-8q-30 0 -52 -16t-32 -38q-5 -22 -5 -78t5 -78q8 -22 30.5 -38.5t53.5 -16.5h8q24 0 43.5 11zM226 702l131 102h1v-234h-132v132z" />
    <glyph glyph-name="gdotaccent" unicode="&#x121;" horiz-adv-x="587" 
d="M515 493v-497q0 -58 -29.5 -107t-81.5 -77.5t-116 -28.5h-6q-86 0 -148.5 42.5t-73.5 121.5h145q7 -23 28 -36t50 -13h6q30 0 51.5 16.5t28.5 43.5v81q-48 -43 -113 -43h-8q-54 0 -100 30t-74 86.5t-28 131.5v16q0 74 28 130.5t74 86.5t100 30h8q73 0 122 -52v38h137z
M338.5 130q19.5 11 30.5 27v189q-11 16 -30.5 27t-43.5 11h-8q-30 0 -52 -16t-32 -38q-5 -22 -5 -78t5 -78q8 -22 30.5 -38.5t53.5 -16.5h8q24 0 43.5 11zM211 709h163v-140h-163v140z" />
    <glyph glyph-name="h" unicode="h" horiz-adv-x="592" 
d="M436.5 483q41.5 -24 64 -64.5t22.5 -89.5v-329h-146v341q-8 18 -27.5 30.5t-46.5 12.5h-2q-26 0 -47 -12t-33 -31v-341h-146v710h146v-249q24 22 54 34t63 12h2q55 0 96.5 -24z" />
    <glyph glyph-name="hbar" unicode="&#x127;" horiz-adv-x="592" 
d="M436.5 483q41.5 -24 64 -64.5t22.5 -89.5v-329h-146v341q-8 18 -27.5 30.5t-46.5 12.5h-2q-26 0 -47 -12t-33 -31v-341h-146v555h-50v80h50v75h146v-75h100v-80h-100v-94q24 22 54 34t63 12h2q55 0 96.5 -24z" />
    <glyph glyph-name="i" unicode="i" horiz-adv-x="296" 
d="M75 493h146v-493h-146v493zM66 709h163v-140h-163v140z" />
    <glyph glyph-name="dotlessi" unicode="&#x131;" horiz-adv-x="296" 
d="M75 493h146v-493h-146v493z" />
    <glyph glyph-name="iacute" unicode="&#xed;" horiz-adv-x="296" 
d="M75 493h146v-493h-146v493zM160 710h158l-99 -142h-142z" />
    <glyph glyph-name="icircumflex" unicode="&#xee;" horiz-adv-x="296" 
d="M75 493h146v-493h-146v493zM205 568l-58 75l-58 -75h-132l103 142h174l103 -142h-132z" />
    <glyph glyph-name="idieresis" unicode="&#xef;" horiz-adv-x="296" 
d="M75 493h146v-493h-146v493zM-42 709h147v-138h-147v138zM191 709h146v-138h-146v138z" />
    <glyph glyph-name="i.loclTRK" horiz-adv-x="296" 
d="M75 493h146v-493h-146v493zM66 709h163v-140h-163v140z" />
    <glyph glyph-name="igrave" unicode="&#xec;" horiz-adv-x="296" 
d="M75 493h146v-493h-146v493zM-23 710h158l83 -142h-141z" />
    <glyph glyph-name="imacron" unicode="&#x12b;" horiz-adv-x="296" 
d="M75 493h146v-493h-146v493zM-1 689h297v-110h-297v110z" />
    <glyph glyph-name="iogonek" unicode="&#x12f;" horiz-adv-x="296" 
d="M229 709v-140h-163v140h163zM75 493h146v-493l-22 -15q-25 -17 -37.5 -36t-12.5 -36v-2q0 -17 11.5 -27.5t30.5 -10.5h3q12 0 27 3v-69q-12 -6 -30 -10t-34 -4h-4q-55 0 -82.5 23.5t-27.5 67.5v3q0 28 21 59.5t57 51.5l3 2h-49v493z" />
    <glyph glyph-name="j" unicode="j" horiz-adv-x="296" 
d="M75 493h146v-621l-146 -89v710zM66 709h163v-140h-163v140z" />
    <glyph glyph-name="uni0237" unicode="&#x237;" horiz-adv-x="296" 
d="M75 493h146v-621l-146 -89v710z" />
    <glyph glyph-name="k" unicode="k" horiz-adv-x="578" 
d="M406 0l-185 267v-267h-146v710h146v-441l167 224h162l-173 -218l198 -275h-169z" />
    <glyph glyph-name="uni0137" unicode="&#x137;" horiz-adv-x="578" 
d="M406 0l-185 267v-267h-146v710h146v-441l167 224h162l-173 -218l198 -275h-169zM228 -59h132v-94l-131 -102h-1v196z" />
    <glyph glyph-name="l" unicode="l" horiz-adv-x="296" 
d="M75 710h146v-710h-146v710z" />
    <glyph glyph-name="lacute" unicode="&#x13a;" horiz-adv-x="296" 
d="M75 710h146v-710h-146v710zM165 911h158l-100 -137h-141z" />
    <glyph glyph-name="lcaron" unicode="&#x13e;" horiz-adv-x="414" 
d="M75 710h146v-710h-146v710zM310 710h114l-47 -208h-106z" />
    <glyph glyph-name="uni013C" unicode="&#x13c;" horiz-adv-x="296" 
d="M75 710h146v-710h-146v710zM81 -59h132v-94l-131 -102h-1v196z" />
    <glyph glyph-name="lslash" unicode="&#x142;" horiz-adv-x="376" 
d="M346 418l-85 -52v-366h-146v277l-86 -52v106l86 52v327h146v-238l85 52v-106z" />
    <glyph glyph-name="m" unicode="m" horiz-adv-x="845" 
d="M731 456.5q46 -49.5 46 -127.5v-329h-146v344q-9 19 -25.5 29.5t-38.5 10.5h-2q-21 0 -38 -10t-28 -28v-346h-146v344q-8 18 -25 29t-39 11h-2q-21 0 -38 -10t-28 -28v-346h-146v493h137v-39q50 52 122 52h2q41 0 74 -16t55 -46q30 31 67 46.5t75 15.5h2q76 0 122 -49.5z
" />
    <glyph glyph-name="n" unicode="n" horiz-adv-x="590" 
d="M434.5 483q41.5 -24 64 -64.5t22.5 -89.5v-329h-146v341q-8 18 -27.5 30.5t-46.5 12.5h-2q-24 0 -45 -11t-33 -29v-344h-146v493h137v-39q24 25 56 39t68 14h2q55 0 96.5 -24z" />
    <glyph glyph-name="nacute" unicode="&#x144;" horiz-adv-x="590" 
d="M434.5 483q41.5 -24 64 -64.5t22.5 -89.5v-329h-146v341q-8 18 -27.5 30.5t-46.5 12.5h-2q-24 0 -45 -11t-33 -29v-344h-146v493h137v-39q24 25 56 39t68 14h2q55 0 96.5 -24zM312 710h158l-99 -142h-142z" />
    <glyph glyph-name="ncaron" unicode="&#x148;" horiz-adv-x="590" 
d="M434.5 483q41.5 -24 64 -64.5t22.5 -89.5v-329h-146v341q-8 18 -27.5 30.5t-46.5 12.5h-2q-24 0 -45 -11t-33 -29v-344h-146v493h137v-39q24 25 56 39t68 14h2q55 0 96.5 -24zM489 710l-103 -142h-174l-103 142h132l58 -75l58 75h132z" />
    <glyph glyph-name="uni0146" unicode="&#x146;" horiz-adv-x="590" 
d="M434.5 483q41.5 -24 64 -64.5t22.5 -89.5v-329h-146v341q-8 18 -27.5 30.5t-46.5 12.5h-2q-24 0 -45 -11t-33 -29v-344h-146v493h137v-39q24 25 56 39t68 14h2q55 0 96.5 -24zM230 -59h132v-94l-131 -102h-1v196z" />
    <glyph glyph-name="eng" unicode="&#x14b;" horiz-adv-x="590" 
d="M434.5 483q41.5 -24 64 -64.5t22.5 -89.5v-457l-146 -89v558q-8 18 -27.5 30.5t-46.5 12.5h-2q-24 0 -45 -11t-33 -29v-344h-146v493h137v-39q24 25 56 39t68 14h2q55 0 96.5 -24z" />
    <glyph glyph-name="ntilde" unicode="&#xf1;" horiz-adv-x="590" 
d="M434.5 483q41.5 -24 64 -64.5t22.5 -89.5v-329h-146v341q-8 18 -27.5 30.5t-46.5 12.5h-2q-24 0 -45 -11t-33 -29v-344h-146v493h137v-39q24 25 56 39t68 14h2q55 0 96.5 -24zM225 712q34 0 78 -22l20 -10q30 -15 46 -15q13 0 20 12.5t8 34.5h87q-3 -143 -108 -143
q-39 0 -79 21l-21 11q-14 8 -22.5 11t-18.5 3q-13 0 -22.5 -12.5t-10.5 -33.5h-87q3 143 110 143z" />
    <glyph glyph-name="o" unicode="o" horiz-adv-x="587" 
d="M167.5 14q-56.5 31 -90 89t-33.5 136v16q0 77 33.5 135t90 89t122.5 31h8q65 0 121.5 -31t90 -89t33.5 -135v-16q0 -78 -33.5 -136t-90 -89t-121.5 -31h-8q-66 0 -122.5 31zM298 106q32 0 55.5 16.5t32.5 38.5q5 23 5 86q0 64 -5 86q-9 21 -32.5 37.5t-55.5 16.5h-8
q-33 0 -56.5 -16.5t-32.5 -37.5q-5 -22 -5 -86q0 -63 5 -86q9 -22 32.5 -38.5t56.5 -16.5h8z" />
    <glyph glyph-name="oacute" unicode="&#xf3;" horiz-adv-x="587" 
d="M167.5 14q-56.5 31 -90 89t-33.5 136v16q0 77 33.5 135t90 89t122.5 31h8q65 0 121.5 -31t90 -89t33.5 -135v-16q0 -78 -33.5 -136t-90 -89t-121.5 -31h-8q-66 0 -122.5 31zM298 106q32 0 55.5 16.5t32.5 38.5q5 23 5 86q0 64 -5 86q-9 21 -32.5 37.5t-55.5 16.5h-8
q-33 0 -56.5 -16.5t-32.5 -37.5q-5 -22 -5 -86q0 -63 5 -86q9 -22 32.5 -38.5t56.5 -16.5h8zM305 710h158l-99 -142h-142z" />
    <glyph glyph-name="ocircumflex" unicode="&#xf4;" horiz-adv-x="587" 
d="M167.5 14q-56.5 31 -90 89t-33.5 136v16q0 77 33.5 135t90 89t122.5 31h8q65 0 121.5 -31t90 -89t33.5 -135v-16q0 -78 -33.5 -136t-90 -89t-121.5 -31h-8q-66 0 -122.5 31zM298 106q32 0 55.5 16.5t32.5 38.5q5 23 5 86q0 64 -5 86q-9 21 -32.5 37.5t-55.5 16.5h-8
q-33 0 -56.5 -16.5t-32.5 -37.5q-5 -22 -5 -86q0 -63 5 -86q9 -22 32.5 -38.5t56.5 -16.5h8zM351 568l-58 75l-58 -75h-132l103 142h174l103 -142h-132z" />
    <glyph glyph-name="odieresis" unicode="&#xf6;" horiz-adv-x="587" 
d="M167.5 14q-56.5 31 -90 89t-33.5 136v16q0 77 33.5 135t90 89t122.5 31h8q65 0 121.5 -31t90 -89t33.5 -135v-16q0 -78 -33.5 -136t-90 -89t-121.5 -31h-8q-66 0 -122.5 31zM298 106q32 0 55.5 16.5t32.5 38.5q5 23 5 86q0 64 -5 86q-9 21 -32.5 37.5t-55.5 16.5h-8
q-33 0 -56.5 -16.5t-32.5 -37.5q-5 -22 -5 -86q0 -63 5 -86q9 -22 32.5 -38.5t56.5 -16.5h8zM104 709h147v-138h-147v138zM337 709h146v-138h-146v138z" />
    <glyph glyph-name="ograve" unicode="&#xf2;" horiz-adv-x="587" 
d="M167.5 14q-56.5 31 -90 89t-33.5 136v16q0 77 33.5 135t90 89t122.5 31h8q65 0 121.5 -31t90 -89t33.5 -135v-16q0 -78 -33.5 -136t-90 -89t-121.5 -31h-8q-66 0 -122.5 31zM298 106q32 0 55.5 16.5t32.5 38.5q5 23 5 86q0 64 -5 86q-9 21 -32.5 37.5t-55.5 16.5h-8
q-33 0 -56.5 -16.5t-32.5 -37.5q-5 -22 -5 -86q0 -63 5 -86q9 -22 32.5 -38.5t56.5 -16.5h8zM122 710h158l83 -142h-141z" />
    <glyph glyph-name="ohungarumlaut" unicode="&#x151;" horiz-adv-x="587" 
d="M167.5 14q-56.5 31 -90 89t-33.5 136v16q0 77 33.5 135t90 89t122.5 31h8q65 0 121.5 -31t90 -89t33.5 -135v-16q0 -78 -33.5 -136t-90 -89t-121.5 -31h-8q-66 0 -122.5 31zM298 106q32 0 55.5 16.5t32.5 38.5q5 23 5 86q0 64 -5 86q-9 21 -32.5 37.5t-55.5 16.5h-8
q-33 0 -56.5 -16.5t-32.5 -37.5q-5 -22 -5 -86q0 -63 5 -86q9 -22 32.5 -38.5t56.5 -16.5h8zM203 710h135l-93 -142h-125zM408 710h135l-93 -142h-125z" />
    <glyph glyph-name="omacron" unicode="&#x14d;" horiz-adv-x="587" 
d="M167.5 14q-56.5 31 -90 89t-33.5 136v16q0 77 33.5 135t90 89t122.5 31h8q65 0 121.5 -31t90 -89t33.5 -135v-16q0 -78 -33.5 -136t-90 -89t-121.5 -31h-8q-66 0 -122.5 31zM298 106q32 0 55.5 16.5t32.5 38.5q5 23 5 86q0 64 -5 86q-9 21 -32.5 37.5t-55.5 16.5h-8
q-33 0 -56.5 -16.5t-32.5 -37.5q-5 -22 -5 -86q0 -63 5 -86q9 -22 32.5 -38.5t56.5 -16.5h8zM145 689h297v-110h-297v110z" />
    <glyph glyph-name="oslash" unicode="&#xf8;" horiz-adv-x="587" 
d="M543 255v-16q0 -78 -33.5 -136t-90 -89t-121.5 -31h-8q-75 0 -136 39l-18 -22h-76l48 61q-30 33 -47 78.5t-17 99.5v16q0 77 33.5 135t90 89t122.5 31h8q75 0 134 -38l17 21h76l-47 -60q65 -70 65 -178zM199 176l154 195q-27 16 -55 16h-8q-33 0 -56.5 -16.5t-32.5 -37.5
q-5 -22 -5 -86q0 -47 3 -71zM391 247q0 48 -3 72l-155 -196q26 -17 57 -17h8q32 0 55.5 16.5t32.5 38.5q5 23 5 86z" />
    <glyph glyph-name="otilde" unicode="&#xf5;" horiz-adv-x="587" 
d="M167.5 14q-56.5 31 -90 89t-33.5 136v16q0 77 33.5 135t90 89t122.5 31h8q65 0 121.5 -31t90 -89t33.5 -135v-16q0 -78 -33.5 -136t-90 -89t-121.5 -31h-8q-66 0 -122.5 31zM298 106q32 0 55.5 16.5t32.5 38.5q5 23 5 86q0 64 -5 86q-9 21 -32.5 37.5t-55.5 16.5h-8
q-33 0 -56.5 -16.5t-32.5 -37.5q-5 -22 -5 -86q0 -63 5 -86q9 -22 32.5 -38.5t56.5 -16.5h8zM218 712q34 0 78 -22l20 -10q30 -15 46 -15q13 0 20 12.5t8 34.5h87q-3 -143 -108 -143q-39 0 -79 21l-21 11q-14 8 -22.5 11t-18.5 3q-13 0 -22.5 -12.5t-10.5 -33.5h-87
q3 143 110 143z" />
    <glyph glyph-name="oe" unicode="&#x153;" horiz-adv-x="905" 
d="M533 205q0 -6 -2 -18l1 -19q8 -30 34 -49.5t62 -19.5h5q27 0 47 12t31 33h143q-22 -78 -83.5 -119.5t-138.5 -41.5h-6q-47 0 -90 17t-76 48q-34 -31 -76.5 -48t-89.5 -17h-8q-64 0 -119.5 31t-89 89t-33.5 136v16q0 77 33.5 135t89 89t119.5 31h8q47 0 89.5 -17t75.5 -48
q32 31 74 48t89 17h6q63 0 116.5 -30t85.5 -85.5t32 -129.5q0 -30 -3 -60h-326zM565 375q-25 -19 -33 -46l-1 -23l1 -7h189v28q-7 30 -31 48.5t-60 18.5h-6q-34 0 -59 -19zM383 247q0 66 -5 86q-8 21 -31 37.5t-53 16.5h-8q-31 0 -53 -16t-32 -38q-5 -22 -5 -86q0 -63 5 -86
q9 -22 31.5 -38.5t53.5 -16.5h8q30 0 53 16.5t31 38.5q5 22 5 86z" />
    <glyph glyph-name="p" unicode="p" horiz-adv-x="599" 
d="M448.5 476q47.5 -31 76 -88t28.5 -133v-16q0 -77 -28.5 -134.5t-76 -88t-102.5 -30.5h-8q-68 0 -117 44v-230h-146v693h136v-40q51 54 127 54h8q55 0 102.5 -31zM401 247q0 61 -5 83q-9 21 -32.5 37.5t-56.5 16.5h-8q-25 0 -45 -10.5t-33 -26.5v-201q13 -16 33 -26.5
t45 -10.5h8q33 0 56.5 16.5t32.5 38.5q5 23 5 83z" />
    <glyph glyph-name="thorn" unicode="&#xfe;" horiz-adv-x="599" 
d="M448.5 476q47.5 -31 76 -88t28.5 -133v-16q0 -77 -28.5 -134.5t-76 -88t-102.5 -30.5h-8q-68 0 -117 44v-230h-146v910h146v-247q49 44 117 44h8q55 0 102.5 -31zM401 247q0 61 -5 83q-9 21 -32.5 37.5t-56.5 16.5h-8q-25 0 -45 -10.5t-33 -26.5v-201q13 -16 33 -26.5
t45 -10.5h8q33 0 56.5 16.5t32.5 38.5q5 23 5 83z" />
    <glyph glyph-name="q" unicode="q" horiz-adv-x="599" 
d="M524 493v-693h-146v230q-49 -44 -117 -44h-8q-55 0 -102.5 30.5t-76 88t-28.5 134.5v16q0 76 28.5 133t76 88t102.5 31h8q76 0 127 -54v40h136zM345 119.5q20 10.5 33 26.5v201q-13 16 -33 26.5t-45 10.5h-8q-33 0 -56.5 -16.5t-32.5 -37.5q-5 -22 -5 -83q0 -60 5 -83
q9 -22 32.5 -38.5t56.5 -16.5h8q25 0 45 10.5z" />
    <glyph glyph-name="r" unicode="r" horiz-adv-x="390" 
d="M352 493v-138q-14 2 -29 2q-31 0 -58.5 -9.5t-43.5 -29.5v-318h-146v493h137v-53q46 55 118 55q14 0 22 -2z" />
    <glyph glyph-name="racute" unicode="&#x155;" horiz-adv-x="390" 
d="M352 493v-138q-14 2 -29 2q-31 0 -58.5 -9.5t-43.5 -29.5v-318h-146v493h137v-53q46 55 118 55q14 0 22 -2zM228 710h158l-99 -142h-142z" />
    <glyph glyph-name="rcaron" unicode="&#x159;" horiz-adv-x="390" 
d="M352 493v-138q-14 2 -29 2q-31 0 -58.5 -9.5t-43.5 -29.5v-318h-146v493h137v-53q46 55 118 55q14 0 22 -2zM405 710l-103 -142h-174l-103 142h132l58 -75l58 75h132z" />
    <glyph glyph-name="uni0157" unicode="&#x157;" horiz-adv-x="390" 
d="M352 493v-138q-14 2 -29 2q-31 0 -58.5 -9.5t-43.5 -29.5v-318h-146v493h137v-53q46 55 118 55q14 0 22 -2zM81 -59h132v-94l-131 -102h-1v196z" />
    <glyph glyph-name="s" unicode="s" horiz-adv-x="449" 
d="M130.5 5q-43.5 22 -66.5 60t-22 84h130q0 -26 17 -42.5t43 -16.5h1q23 0 37 14t12 36q-2 8 -15.5 17t-45.5 26l-80 41q-89 47 -89 133v2q0 42 22.5 76.5t61 54t84.5 19.5h4q61 0 104 -27t68 -68l-92 -65q-18 25 -36 38.5t-41 13.5h-2q-19 0 -31 -11.5t-11 -29.5
q4 -8 18 -17t42 -24l70 -36q45 -23 69.5 -56t24.5 -83v-2q0 -44 -22 -80t-61.5 -57.5t-90.5 -21.5h-2q-57 0 -100.5 22z" />
    <glyph glyph-name="sacute" unicode="&#x15b;" horiz-adv-x="449" 
d="M130.5 5q-43.5 22 -66.5 60t-22 84h130q0 -26 17 -42.5t43 -16.5h1q23 0 37 14t12 36q-2 8 -15.5 17t-45.5 26l-80 41q-89 47 -89 133v2q0 42 22.5 76.5t61 54t84.5 19.5h4q61 0 104 -27t68 -68l-92 -65q-18 25 -36 38.5t-41 13.5h-2q-19 0 -31 -11.5t-11 -29.5
q4 -8 18 -17t42 -24l70 -36q45 -23 69.5 -56t24.5 -83v-2q0 -44 -22 -80t-61.5 -57.5t-90.5 -21.5h-2q-57 0 -100.5 22zM237 710h158l-99 -142h-142z" />
    <glyph glyph-name="scaron" unicode="&#x161;" horiz-adv-x="449" 
d="M130.5 5q-43.5 22 -66.5 60t-22 84h130q0 -26 17 -42.5t43 -16.5h1q23 0 37 14t12 36q-2 8 -15.5 17t-45.5 26l-80 41q-89 47 -89 133v2q0 42 22.5 76.5t61 54t84.5 19.5h4q61 0 104 -27t68 -68l-92 -65q-18 25 -36 38.5t-41 13.5h-2q-19 0 -31 -11.5t-11 -29.5
q4 -8 18 -17t42 -24l70 -36q45 -23 69.5 -56t24.5 -83v-2q0 -44 -22 -80t-61.5 -57.5t-90.5 -21.5h-2q-57 0 -100.5 22zM415 710l-103 -142h-174l-103 142h132l58 -75l58 75h132z" />
    <glyph glyph-name="scedilla" unicode="&#x15f;" horiz-adv-x="449" 
d="M382.5 227q24.5 -33 24.5 -83v-2q0 -60 -40 -104.5t-106 -52.5l-18 -45q37 -8 58.5 -30t21.5 -57v-3q0 -47 -31.5 -71.5t-87.5 -24.5h-4q-23 0 -46 6.5t-38 16.5v60q31 -19 72 -19h4q17 0 27 9t10 22v6q0 12 -12.5 20.5t-32.5 8.5h-36l41 102q-69 12 -109 57t-38 106h130
q0 -26 17 -42.5t43 -16.5h1q23 0 37 14t12 36q-2 8 -15.5 17t-45.5 26l-80 41q-89 47 -89 133v2q0 42 22.5 76.5t61 54t84.5 19.5h4q61 0 104 -27t68 -68l-92 -65q-18 25 -36 38.5t-41 13.5h-2q-19 0 -31 -11.5t-11 -29.5q4 -8 18 -17t42 -24l70 -36q45 -23 69.5 -56z" />
    <glyph glyph-name="uni0219" unicode="&#x219;" horiz-adv-x="449" 
d="M130.5 5q-43.5 22 -66.5 60t-22 84h130q0 -26 17 -42.5t43 -16.5h1q23 0 37 14t12 36q-2 8 -15.5 17t-45.5 26l-80 41q-89 47 -89 133v2q0 42 22.5 76.5t61 54t84.5 19.5h4q61 0 104 -27t68 -68l-92 -65q-18 25 -36 38.5t-41 13.5h-2q-19 0 -31 -11.5t-11 -29.5
q4 -8 18 -17t42 -24l70 -36q45 -23 69.5 -56t24.5 -83v-2q0 -44 -22 -80t-61.5 -57.5t-90.5 -21.5h-2q-57 0 -100.5 22zM164 -59h132v-94l-131 -102h-1v196z" />
    <glyph glyph-name="germandbls" unicode="&#xdf;" horiz-adv-x="621" 
d="M534 320.5q32 -46.5 32 -103.5v-8q0 -64 -27 -113t-76.5 -76t-115.5 -27h-6q-20 0 -42 3t-35 7v118q21 -7 51 -7h6q39 0 66 15.5t35 39.5q3 15 3 44q0 27 -3 42q-8 25 -39 43t-71 18h-37v113h28q28 0 51 14.5t30 33.5q3 14 3 38q0 26 -3 38q-9 20 -30.5 34t-50.5 14h-6
q-31 0 -55 -19t-24 -45v-537h-146v525q0 54 29.5 97.5t80.5 68.5t115 25h6q62 0 112.5 -23.5t79 -65t28.5 -92.5v-8q0 -42 -20.5 -76.5t-56.5 -57.5q56 -26 88 -72.5z" />
    <glyph glyph-name="t" unicode="t" horiz-adv-x="377" 
d="M333 384h-76v-384h-147v384h-64v109h64v105l147 89v-194h76v-109z" />
    <glyph glyph-name="tbar" unicode="&#x167;" horiz-adv-x="377" 
d="M336 208h-79v-208h-147v208h-70v80h70v96h-64v109h64v105l147 89v-194h76v-109h-76v-96h79v-80z" />
    <glyph glyph-name="tcaron" unicode="&#x165;" horiz-adv-x="437" 
d="M333 384h-76v-384h-147v384h-64v109h64v105l147 89v-194h76v-109zM354 778h114l-47 -208h-106z" />
    <glyph glyph-name="uni0163" unicode="&#x163;" horiz-adv-x="377" 
d="M220 0l-24 -60q37 -8 58.5 -30t21.5 -57v-3q0 -47 -31.5 -71.5t-87.5 -24.5h-4q-23 0 -46 6.5t-38 16.5v60q31 -19 72 -19h4q17 0 27 9t10 22v6q0 12 -12.5 20.5t-32.5 8.5h-36l47 116h-38v384h-64v109h64v105l147 89v-194h76v-109h-76v-384h-37z" />
    <glyph glyph-name="uni021B" unicode="&#x21b;" horiz-adv-x="377" 
d="M333 384h-76v-384h-147v384h-64v109h64v105l147 89v-194h76v-109zM117 -59h132v-94l-131 -102h-1v196z" />
    <glyph glyph-name="u" unicode="u" horiz-adv-x="588" 
d="M513 493v-493h-137v41q-24 -26 -55.5 -40.5t-67.5 -14.5h-2q-54 0 -95.5 24t-64 64.5t-22.5 89.5v329h146v-341q8 -18 27 -30.5t46 -12.5h2q24 0 44.5 11.5t32.5 29.5v343h146z" />
    <glyph glyph-name="uacute" unicode="&#xfa;" horiz-adv-x="588" 
d="M513 493v-493h-137v41q-24 -26 -55.5 -40.5t-67.5 -14.5h-2q-54 0 -95.5 24t-64 64.5t-22.5 89.5v329h146v-341q8 -18 27 -30.5t46 -12.5h2q24 0 44.5 11.5t32.5 29.5v343h146zM303 710h158l-99 -142h-142z" />
    <glyph glyph-name="ucircumflex" unicode="&#xfb;" horiz-adv-x="588" 
d="M513 493v-493h-137v41q-24 -26 -55.5 -40.5t-67.5 -14.5h-2q-54 0 -95.5 24t-64 64.5t-22.5 89.5v329h146v-341q8 -18 27 -30.5t46 -12.5h2q24 0 44.5 11.5t32.5 29.5v343h146zM348 568l-58 75l-58 -75h-132l103 142h174l103 -142h-132z" />
    <glyph glyph-name="udieresis" unicode="&#xfc;" horiz-adv-x="588" 
d="M513 493v-493h-137v41q-24 -26 -55.5 -40.5t-67.5 -14.5h-2q-54 0 -95.5 24t-64 64.5t-22.5 89.5v329h146v-341q8 -18 27 -30.5t46 -12.5h2q24 0 44.5 11.5t32.5 29.5v343h146zM101 709h147v-138h-147v138zM334 709h146v-138h-146v138z" />
    <glyph glyph-name="ugrave" unicode="&#xf9;" horiz-adv-x="588" 
d="M513 493v-493h-137v41q-24 -26 -55.5 -40.5t-67.5 -14.5h-2q-54 0 -95.5 24t-64 64.5t-22.5 89.5v329h146v-341q8 -18 27 -30.5t46 -12.5h2q24 0 44.5 11.5t32.5 29.5v343h146zM120 710h158l83 -142h-141z" />
    <glyph glyph-name="uhungarumlaut" unicode="&#x171;" horiz-adv-x="588" 
d="M513 493v-493h-137v41q-24 -26 -55.5 -40.5t-67.5 -14.5h-2q-54 0 -95.5 24t-64 64.5t-22.5 89.5v329h146v-341q8 -18 27 -30.5t46 -12.5h2q24 0 44.5 11.5t32.5 29.5v343h146zM200 710h135l-93 -142h-125zM405 710h135l-93 -142h-125z" />
    <glyph glyph-name="umacron" unicode="&#x16b;" horiz-adv-x="588" 
d="M513 493v-493h-137v41q-24 -26 -55.5 -40.5t-67.5 -14.5h-2q-54 0 -95.5 24t-64 64.5t-22.5 89.5v329h146v-341q8 -18 27 -30.5t46 -12.5h2q24 0 44.5 11.5t32.5 29.5v343h146zM142 689h297v-110h-297v110z" />
    <glyph glyph-name="uogonek" unicode="&#x173;" horiz-adv-x="588" 
d="M453.5 -51q-12.5 -19 -12.5 -36v-2q0 -17 11.5 -27.5t30.5 -10.5h3q12 0 27 3v-69q-12 -6 -30 -10t-34 -4h-4q-55 0 -82.5 23.5t-27.5 67.5v3q0 28 21 59.5t57 51.5l3 2h-40v41q-24 -26 -55.5 -40.5t-67.5 -14.5h-2q-54 0 -95.5 24t-64 64.5t-22.5 89.5v329h146v-341
q8 -18 27 -30.5t46 -12.5h2q24 0 44.5 11.5t32.5 29.5v343h146v-493l-22 -15q-25 -17 -37.5 -36z" />
    <glyph glyph-name="uring" unicode="&#x16f;" horiz-adv-x="588" 
d="M513 493v-493h-137v41q-24 -26 -55.5 -40.5t-67.5 -14.5h-2q-54 0 -95.5 24t-64 64.5t-22.5 89.5v329h146v-341q8 -18 27 -30.5t46 -12.5h2q24 0 44.5 11.5t32.5 29.5v343h146zM205.5 595q-35.5 33 -35.5 81q0 47 35.5 80t85.5 33t85.5 -33t35.5 -80q0 -48 -35.5 -81
t-85.5 -33t-85.5 33zM325.5 641.5q14.5 14.5 14.5 34.5t-14.5 34t-34.5 14t-34.5 -14t-14.5 -34t14.5 -34.5t34.5 -14.5t34.5 14.5z" />
    <glyph glyph-name="v" unicode="v" horiz-adv-x="552" 
d="M543 493l-265 -518h-2l-266 518h154l118 -235l117 235h144z" />
    <glyph glyph-name="w" unicode="w" horiz-adv-x="750" 
d="M737 493l-230 -518h-2l-130 252l-129 -252h-2l-231 518h152l100 -229l115 229h1l117 -227l99 227h140z" />
    <glyph glyph-name="wacute" unicode="&#x1e83;" horiz-adv-x="750" 
d="M737 493l-230 -518h-2l-130 252l-129 -252h-2l-231 518h152l100 -229l115 229h1l117 -227l99 227h140zM392 710h158l-99 -142h-142z" />
    <glyph glyph-name="wcircumflex" unicode="&#x175;" horiz-adv-x="750" 
d="M737 493l-230 -518h-2l-130 252l-129 -252h-2l-231 518h152l100 -229l115 229h1l117 -227l99 227h140zM437 568l-58 75l-58 -75h-132l103 142h174l103 -142h-132z" />
    <glyph glyph-name="wdieresis" unicode="&#x1e85;" horiz-adv-x="750" 
d="M737 493l-230 -518h-2l-130 252l-129 -252h-2l-231 518h152l100 -229l115 229h1l117 -227l99 227h140zM191 709h147v-138h-147v138zM424 709h146v-138h-146v138z" />
    <glyph glyph-name="wgrave" unicode="&#x1e81;" horiz-adv-x="750" 
d="M737 493l-230 -518h-2l-130 252l-129 -252h-2l-231 518h152l100 -229l115 229h1l117 -227l99 227h140zM209 710h158l83 -142h-141z" />
    <glyph glyph-name="x" unicode="x" horiz-adv-x="601" 
d="M413 0l-115 172l-115 -172h-158l177 253l-168 240h163l107 -159l105 159h158l-165 -240l174 -253h-163z" />
    <glyph glyph-name="y" unicode="y" horiz-adv-x="571" 
d="M562 493l-338 -693h-143l134 276l-205 417h154l126 -264l129 264h143z" />
    <glyph glyph-name="yacute" unicode="&#xfd;" horiz-adv-x="571" 
d="M562 493l-338 -693h-143l134 276l-205 417h154l126 -264l129 264h143zM295 710h158l-99 -142h-142z" />
    <glyph glyph-name="ycircumflex" unicode="&#x177;" horiz-adv-x="571" 
d="M562 493l-338 -693h-143l134 276l-205 417h154l126 -264l129 264h143zM341 568l-58 75l-58 -75h-132l103 142h174l103 -142h-132z" />
    <glyph glyph-name="ydieresis" unicode="&#xff;" horiz-adv-x="571" 
d="M562 493l-338 -693h-143l134 276l-205 417h154l126 -264l129 264h143zM94 709h147v-138h-147v138zM327 709h146v-138h-146v138z" />
    <glyph glyph-name="ygrave" unicode="&#x1ef3;" horiz-adv-x="571" 
d="M562 493l-338 -693h-143l134 276l-205 417h154l126 -264l129 264h143zM112 710h158l83 -142h-141z" />
    <glyph glyph-name="z" unicode="z" horiz-adv-x="516" 
d="M489 491l-231 -368h217v-123h-448v2l231 369h-203v122h434v-2z" />
    <glyph glyph-name="zacute" unicode="&#x17a;" horiz-adv-x="516" 
d="M489 491l-231 -368h217v-123h-448v2l231 369h-203v122h434v-2zM282 710h158l-99 -142h-142z" />
    <glyph glyph-name="zcaron" unicode="&#x17e;" horiz-adv-x="516" 
d="M489 491l-231 -368h217v-123h-448v2l231 369h-203v122h434v-2zM460 710l-103 -142h-174l-103 142h132l58 -75l58 75h132z" />
    <glyph glyph-name="zdotaccent" unicode="&#x17c;" horiz-adv-x="516" 
d="M489 491l-231 -368h217v-123h-448v2l231 369h-203v122h434v-2zM189 709h163v-140h-163v140z" />
    <glyph glyph-name="ordfeminine" unicode="&#xaa;" horiz-adv-x="397" 
d="M353 680v-324h-106v22q-33 -31 -79 -31h-6q-36 0 -66.5 20t-49.5 58t-19 88v10q0 50 19 88t50 58.5t66 20.5h6q47 0 79 -32v22h106zM240 457v122q-18 16 -41 16h-5q-16 0 -29 -7.5t-17 -16.5q-4 -12 -4 -53q0 -39 4 -53q5 -10 18 -17t28 -7h5q25 0 41 16z" />
    <glyph glyph-name="ordmasculine" unicode="&#xba;" horiz-adv-x="393" 
d="M112 365.5q-38 20.5 -61.5 58.5t-23.5 89v10q0 51 23.5 89.5t61.5 59t82 20.5h5q44 0 82.5 -20.5t61.5 -59t23 -89.5v-10q0 -51 -23 -89t-61.5 -58.5t-82.5 -20.5h-5q-44 0 -82 20.5zM199 439q16 0 28.5 7t17.5 17q4 12 4 55t-4 55q-5 10 -17.5 17t-28.5 7h-5
q-15 0 -28 -7t-18 -17q-4 -12 -4 -55q0 -41 4 -55q5 -10 18 -17t28 -7h5z" />
    <glyph glyph-name="uni0394" unicode="&#x394;" horiz-adv-x="669" 
d="M663 0h-658l328 705h2zM452 127l-123 272l-121 -272h244z" />
    <glyph glyph-name="uni03A9" unicode="&#x3a9;" horiz-adv-x="722" 
d="M676 134v-134h-269v136q73 24 102 112q5 45 5 104q0 60 -5 103q-13 43 -51 75t-93 32h-8q-55 0 -93 -32t-51 -75q-4 -35 -4 -103t4 -104q13 -40 39 -69.5t63 -42.5v-136h-268v134h87q-41 42 -63.5 99t-22.5 126v23q0 96 41.5 167.5t112 109.5t155.5 38h8q85 0 156 -38
t112.5 -109.5t41.5 -167.5v-23q0 -70 -22.5 -126.5t-64.5 -98.5h88z" />
    <glyph glyph-name="uni03BC" unicode="&#x3bc;" horiz-adv-x="594" 
d="M519 493v-493h-137v40q-43 -54 -104 -54h-2q-30 0 -55 14v-200h-146v693h146v-341q8 -18 27.5 -30.5t45.5 -12.5h2q24 0 44.5 11.5t32.5 29.5v343h146z" />
    <glyph glyph-name="pi" unicode="&#x3c0;" horiz-adv-x="676" 
d="M629 384h-76v-384h-146v384h-151v-384h-146v384h-64v109h583v-109z" />
    <glyph glyph-name="zero" unicode="0" horiz-adv-x="637" 
d="M182.5 19q-59.5 36 -94.5 103.5t-35 157.5v120q0 90 35 157.5t94.5 103.5t131.5 36h8q73 0 132.5 -36t94.5 -103.5t35 -157.5v-120q0 -90 -35 -157.5t-94.5 -103.5t-132.5 -36h-8q-72 0 -131.5 36zM322 110q39 0 67 23t37 51q4 31 4 156t-4 156q-9 28 -37 51t-67 23h-8
q-38 0 -66 -23t-37 -51q-4 -31 -4 -156t4 -156q9 -28 37 -51t66 -23h8z" />
    <glyph glyph-name="zero.tf" horiz-adv-x="600" 
d="M166.5 19q-58.5 36 -93 103.5t-34.5 157.5v120q0 90 34.5 157.5t93 103.5t129.5 36h8q71 0 129.5 -36t93 -103.5t34.5 -157.5v-120q0 -90 -34.5 -157.5t-93 -103.5t-129.5 -36h-8q-71 0 -129.5 36zM304 110q36 0 63.5 23t35.5 51q4 31 4 156t-4 156q-8 28 -35.5 51
t-63.5 23h-8q-36 0 -63.5 -23t-35.5 -51q-4 -31 -4 -156t4 -156q8 -28 35.5 -51t63.5 -23h8z" />
    <glyph glyph-name="one" unicode="1" horiz-adv-x="472" 
d="M329 0h-150v546h-114l65 134h199v-680z" />
    <glyph glyph-name="one.tf" horiz-adv-x="600" 
d="M399 0h-150v546h-114l65 134h199v-680z" />
    <glyph glyph-name="two" unicode="2" horiz-adv-x="597" 
d="M540 134v-134h-504v2l276 345q48 60 60 98q2 8 2 40q0 30 -2 38q-7 19 -28.5 35t-49.5 16h-3q-35 0 -60 -23.5t-29 -63.5h-148q5 63 37.5 110.5t84 73.5t112.5 26h6q61 0 113 -27t83 -74.5t31 -106.5v-2q0 -52 -21 -98t-78 -116l-112 -139h230z" />
    <glyph glyph-name="two.tf" horiz-adv-x="600" 
d="M544 134v-134h-504v2l276 345q48 60 60 98q2 8 2 40q0 30 -2 38q-7 19 -28.5 35t-49.5 16h-3q-35 0 -60 -23.5t-29 -63.5h-148q5 63 37.5 110.5t84 73.5t112.5 26h6q61 0 113 -27t83 -74.5t31 -106.5v-2q0 -52 -21 -98t-78 -116l-112 -139h230z" />
    <glyph glyph-name="three" unicode="3" horiz-adv-x="630" 
d="M523 359.5q48 -60.5 48 -140.5v-8q0 -64 -34 -116t-91.5 -82t-123.5 -30h-6q-65 0 -122 27t-93.5 76.5t-39.5 112.5h150q4 -40 34 -66.5t71 -26.5h6q37 0 63 19.5t38 47.5q3 14 3 42q0 31 -3 43q-12 29 -37 48t-64 19h-147l147 221h-225v134h464v-2l-159 -238
q73 -20 121 -80.5z" />
    <glyph glyph-name="three.tf" horiz-adv-x="600" 
d="M506 359.5q48 -60.5 48 -140.5v-8q0 -64 -34 -116t-91.5 -82t-123.5 -30h-6q-65 0 -122 27t-93.5 76.5t-39.5 112.5h150q4 -40 34 -66.5t71 -26.5h6q37 0 63 19.5t38 47.5q3 14 3 42q0 31 -3 43q-12 29 -37 48t-64 19h-147l147 221h-225v134h464v-2l-159 -238
q73 -20 121 -80.5z" />
    <glyph glyph-name="four" unicode="4" horiz-adv-x="664" 
d="M573 429v-429h-146v153h-392v2l247 525h153l-184 -392h176v141h146z" />
    <glyph glyph-name="four.tf" horiz-adv-x="600" 
d="M546 429v-429h-146v153h-392v2l247 525h153l-184 -392h176v141h146z" />
    <glyph glyph-name="five" unicode="5" horiz-adv-x="624" 
d="M190.5 10q-57.5 27 -93.5 76t-40 113h151q4 -40 34 -66.5t71 -26.5h6q36 0 62.5 20t37.5 47q3 14 3 42q0 31 -3 43q-11 28 -36.5 47.5t-63.5 19.5h-220v355h422v-134h-283v-98h100q61 0 113.5 -30t84 -82.5t31.5 -116.5v-8q0 -64 -34 -116t-91 -82t-123 -30h-6
q-65 0 -122.5 27z" />
    <glyph glyph-name="five.tf" horiz-adv-x="600" 
d="M175.5 10q-57.5 27 -93.5 76t-40 113h151q4 -40 34 -66.5t71 -26.5h6q36 0 62.5 20t37.5 47q3 14 3 42q0 31 -3 43q-11 28 -36.5 47.5t-63.5 19.5h-220v355h422v-134h-283v-98h100q61 0 113.5 -30t84 -82.5t31.5 -116.5v-8q0 -64 -34 -116t-91 -82t-123 -30h-6
q-65 0 -122.5 27z" />
    <glyph glyph-name="six" unicode="6" horiz-adv-x="601" 
d="M438 424q53 -30 85 -82t32 -117v-8q0 -66 -34 -119.5t-91.5 -84t-123.5 -30.5h-6q-66 0 -123 30.5t-91 84t-34 119.5v8q0 36 12 73.5t38 84.5l166 297h157l-130 -228q16 2 24 2h6q60 0 113 -30zM409 221q0 33 -2 47q-8 26 -36.5 47.5t-64.5 21.5h-6q-35 0 -64 -21.5
t-36 -47.5q-2 -14 -2 -47q0 -32 2 -46q7 -26 36 -47.5t64 -21.5h6q36 0 64.5 21.5t36.5 47.5q2 14 2 46z" />
    <glyph glyph-name="six.tf" horiz-adv-x="600" 
d="M434 424q53 -30 85 -82t32 -117v-8q0 -66 -34 -119.5t-91.5 -84t-123.5 -30.5h-6q-66 0 -123 30.5t-91 84t-34 119.5v8q0 36 12 73.5t38 84.5l166 297h157l-130 -228q16 2 24 2h6q60 0 113 -30zM405 221q0 33 -2 47q-8 26 -36.5 47.5t-64.5 21.5h-6q-35 0 -64 -21.5
t-36 -47.5q-2 -14 -2 -47q0 -32 2 -46q7 -26 36 -47.5t64 -21.5h6q36 0 64.5 21.5t36.5 47.5q2 14 2 46z" />
    <glyph glyph-name="seven" unicode="7" horiz-adv-x="588" 
d="M565 680v-2l-319 -678h-154l258 546h-296v134h511z" />
    <glyph glyph-name="seven.tf" horiz-adv-x="600" 
d="M578 680v-2l-319 -678h-154l258 546h-296v134h511z" />
    <glyph glyph-name="eight" unicode="8" horiz-adv-x="609" 
d="M532.5 290.5q25.5 -41.5 25.5 -90.5v-8q0 -59 -32.5 -106.5t-90 -75t-128.5 -27.5h-6q-70 0 -127.5 27.5t-90 75t-32.5 106.5v8q0 49 25.5 90.5t70.5 69.5q-34 26 -52.5 61.5t-18.5 76.5v8q0 54 29.5 97.5t80.5 68.5t115 25h6q64 0 115.5 -25t81 -68.5t29.5 -97.5v-8
q0 -41 -18.5 -76.5t-52.5 -61.5q45 -28 70.5 -69.5zM216 494q0 -19 2 -37q8 -18 31 -31.5t52 -13.5h6q30 0 52.5 13.5t30.5 31.5q2 18 2 37q0 21 -2 37q-8 18 -30.5 31.5t-52.5 13.5h-6q-29 0 -52 -13.5t-31 -31.5q-2 -16 -2 -37zM412 201q0 34 -2 41q-9 22 -37.5 39.5
t-65.5 17.5h-6q-36 0 -64.5 -17.5t-37.5 -39.5q-2 -14 -2 -41q0 -24 2 -40q9 -22 37.5 -39.5t64.5 -17.5h6q37 0 65.5 17.5t37.5 39.5q2 8 2 40z" />
    <glyph glyph-name="eight.tf" horiz-adv-x="600" 
d="M530.5 290.5q25.5 -41.5 25.5 -90.5v-8q0 -59 -32.5 -106.5t-90 -75t-128.5 -27.5h-6q-70 0 -127.5 27.5t-90 75t-32.5 106.5v8q0 49 25.5 90.5t70.5 69.5q-34 26 -52.5 61.5t-18.5 76.5v8q0 54 29.5 97.5t80.5 68.5t115 25h6q64 0 115.5 -25t81 -68.5t29.5 -97.5v-8
q0 -41 -18.5 -76.5t-52.5 -61.5q45 -28 70.5 -69.5zM214 494q0 -19 2 -37q8 -18 31 -31.5t52 -13.5h6q30 0 52.5 13.5t30.5 31.5q2 18 2 37q0 21 -2 37q-8 18 -30.5 31.5t-52.5 13.5h-6q-29 0 -52 -13.5t-31 -31.5q-2 -16 -2 -37zM410 201q0 34 -2 41q-9 22 -37.5 39.5
t-65.5 17.5h-6q-36 0 -64.5 -17.5t-37.5 -39.5q-2 -14 -2 -41q0 -24 2 -40q9 -22 37.5 -39.5t64.5 -17.5h6q37 0 65.5 17.5t37.5 39.5q2 8 2 40z" />
    <glyph glyph-name="nine" unicode="9" horiz-adv-x="593" 
d="M418.5 667q56.5 -30 90 -82.5t33.5 -117.5v-8q0 -36 -12.5 -73.5t-38.5 -84.5l-168 -301h-158l136 236q-16 -2 -22 -2h-6q-60 0 -112 29t-83 80.5t-31 115.5v8q0 65 33.5 117.5t89.5 82.5t121 30h6q65 0 121.5 -30zM395 463q0 30 -2 46q-7 25 -34 45t-62 20h-6
q-34 0 -61.5 -20.5t-34.5 -44.5q-2 -16 -2 -46q0 -31 2 -47q7 -24 34.5 -44.5t61.5 -20.5h6q35 0 62 20t34 45q2 16 2 47z" />
    <glyph glyph-name="nine.tf" horiz-adv-x="600" 
d="M421.5 667q56.5 -30 90 -82.5t33.5 -117.5v-8q0 -36 -12.5 -73.5t-38.5 -84.5l-168 -301h-158l136 236q-16 -2 -22 -2h-6q-60 0 -112 29t-83 80.5t-31 115.5v8q0 65 33.5 117.5t89.5 82.5t121 30h6q65 0 121.5 -30zM398 463q0 30 -2 46q-7 25 -34 45t-62 20h-6
q-34 0 -61.5 -20.5t-34.5 -44.5q-2 -16 -2 -46q0 -31 2 -47q7 -24 34.5 -44.5t61.5 -20.5h6q35 0 62 20t34 45q2 16 2 47z" />
    <glyph glyph-name="uni2080" unicode="&#x2080;" horiz-adv-x="448" 
d="M134 -88q-40 23 -63.5 66t-23.5 100v73q0 56 23.5 99t63.5 66.5t88 23.5h5q48 0 87.5 -23.5t63 -66.5t23.5 -99v-73q0 -57 -23.5 -100t-63 -66t-87.5 -23h-5q-48 0 -88 23zM227 -18q20 0 36.5 10t21.5 22q3 18 3 100t-3 100q-5 13 -21.5 23t-36.5 10h-5q-19 0 -36 -9.5
t-23 -23.5q-2 -13 -2 -100t2 -100q5 -12 21.5 -22t37.5 -10h5z" />
    <glyph glyph-name="uni2081" unicode="&#x2081;" horiz-adv-x="347" 
d="M242 -100h-110v329h-78l47 99h141v-428z" />
    <glyph glyph-name="uni2082" unicode="&#x2082;" horiz-adv-x="425" 
d="M372 -1v-99h-336v1l179 220q31 40 36 56q2 6 2 26q0 19 -2 23q-4 9 -16.5 16.5t-26.5 7.5h-2q-19 0 -34.5 -13t-16.5 -36h-108q4 61 48 100t107 39h4q41 0 76 -18t55.5 -49t20.5 -69v-1q0 -33 -13.5 -61.5t-49.5 -72.5l-58 -70h135z" />
    <glyph glyph-name="uni2083" unicode="&#x2083;" horiz-adv-x="448" 
d="M365.5 128q30.5 -38 30.5 -87v-5q0 -41 -23 -75t-61 -53t-82 -19h-4q-43 0 -82 17.5t-63 50t-26 75.5h109q3 -23 21 -38t41 -15h4q20 0 35 10t22 24q2 5 2 25q0 21 -2 25q-7 15 -21.5 24.5t-35.5 9.5h-104l88 132h-135v99h310v-1l-100 -147q46 -14 76.5 -52z" />
    <glyph glyph-name="uni2084" unicode="&#x2084;" horiz-adv-x="474" 
d="M401 174v-274h-106v92h-260v2l163 334h112l-115 -238h100v84h106z" />
    <glyph glyph-name="uni2085" unicode="&#x2085;" horiz-adv-x="444" 
d="M140.5 -93.5q-38.5 17.5 -63 50.5t-26.5 75h110q2 -23 20 -38t41 -15h4q21 0 36 10t23 24q2 10 2 25t-2 25q-18 34 -59 34h-147v231h282v-99h-181v-42h62q39 0 73.5 -19t55.5 -52.5t21 -74.5v-5q0 -41 -23 -75t-61 -53t-82 -19h-4q-43 0 -81.5 17.5z" />
    <glyph glyph-name="uni2086" unicode="&#x2086;" horiz-adv-x="426" 
d="M306 171q35 -19 56 -52.5t21 -73.5v-6q0 -42 -23 -76.5t-61.5 -54t-81.5 -19.5h-4q-44 0 -82 19.5t-61 54t-23 76.5v6q0 21 7 45t27 58l105 180h114l-82 -139q3 1 9 1h4q40 0 75 -19zM276 42q0 23 -1 28q-5 13 -21.5 24t-36.5 11h-4q-20 0 -37 -11.5t-21 -23.5
q-2 -8 -2 -30q0 -18 2 -26q4 -13 21 -24t37 -11h4q20 0 36.5 11t21.5 24q1 3 1 28z" />
    <glyph glyph-name="uni2087" unicode="&#x2087;" horiz-adv-x="422" 
d="M394 326v-1l-207 -427h-113l161 329h-185v99h344z" />
    <glyph glyph-name="uni2088" unicode="&#x2088;" horiz-adv-x="427" 
d="M368 81q15 -25 15 -55v-6q0 -37 -22 -67.5t-60 -48t-85 -17.5h-4q-47 0 -85.5 17.5t-60.5 48t-22 67.5v6q0 30 15.5 55t43.5 43q-42 34 -42 84v6q0 53 42.5 88.5t108.5 35.5h4q65 0 108 -35.5t43 -88.5v-6q0 -24 -11 -46t-31 -38q28 -18 43 -43zM162 206q0 -11 2 -23
q5 -8 19 -15t29 -7h4q16 0 29 7t18 15q0 3 0.5 8t0.5 15q0 9 -0.5 14t-0.5 8q-5 8 -18 15t-29 7h-4q-15 0 -29 -7t-19 -15q-2 -12 -2 -22zM275 28q0 19 -1 23q-6 11 -23 19.5t-35 8.5h-4q-21 0 -37.5 -8.5t-21.5 -19.5q-2 -8 -2 -23t2 -25q6 -11 22.5 -19.5t36.5 -8.5h4
q20 0 36 8.5t22 19.5q1 5 1 25z" />
    <glyph glyph-name="uni2089" unicode="&#x2089;" horiz-adv-x="421" 
d="M291.5 318.5q37.5 -19.5 60 -53.5t22.5 -76v-5q0 -45 -34 -103l-106 -183h-115l85 143h-7h-4q-39 0 -73.5 19t-55.5 51.5t-21 72.5v5q0 42 23 76t60.5 53.5t80.5 19.5h4q43 0 80.5 -19.5zM268 188q0 21 -1 27q-5 12 -21.5 22.5t-34.5 10.5h-4q-19 0 -35 -10.5t-20 -22.5
q-2 -12 -2 -30t2 -26q4 -12 20 -22t35 -10h4q19 0 35 10t21 22q1 4 1 29z" />
    <glyph glyph-name="zero.dnom" horiz-adv-x="448" 
d="M134 12q-40 23 -63.5 66t-23.5 100v73q0 56 23.5 99t63.5 66.5t88 23.5h5q48 0 87.5 -23.5t63 -66.5t23.5 -99v-73q0 -57 -23.5 -100t-63 -66t-87.5 -23h-5q-48 0 -88 23zM227 82q20 0 36.5 10t21.5 22q3 18 3 100t-3 100q-5 13 -21.5 23t-36.5 10h-5q-19 0 -36 -9.5
t-23 -23.5q-2 -13 -2 -100t2 -100q5 -12 21.5 -22t37.5 -10h5z" />
    <glyph glyph-name="one.dnom" horiz-adv-x="347" 
d="M242 0h-110v329h-78l47 99h141v-428z" />
    <glyph glyph-name="two.dnom" horiz-adv-x="425" 
d="M372 99v-99h-336v1l179 220q31 40 36 56q2 6 2 26q0 19 -2 23q-4 9 -16.5 16.5t-26.5 7.5h-2q-19 0 -34.5 -13t-16.5 -36h-108q4 61 48 100t107 39h4q41 0 76 -18t55.5 -49t20.5 -69v-1q0 -33 -13.5 -61.5t-49.5 -72.5l-58 -70h135z" />
    <glyph glyph-name="three.dnom" horiz-adv-x="448" 
d="M365.5 228q30.5 -38 30.5 -87v-5q0 -41 -23 -75t-61 -53t-82 -19h-4q-43 0 -82 17.5t-63 50t-26 75.5h109q3 -23 21 -38t41 -15h4q20 0 35 10t22 24q2 5 2 25q0 21 -2 25q-7 15 -21.5 24.5t-35.5 9.5h-104l88 132h-135v99h310v-1l-100 -147q46 -14 76.5 -52z" />
    <glyph glyph-name="four.dnom" horiz-adv-x="474" 
d="M401 274v-274h-106v92h-260v2l163 334h112l-115 -238h100v84h106z" />
    <glyph glyph-name="five.dnom" horiz-adv-x="444" 
d="M140.5 6.5q-38.5 17.5 -63 50.5t-26.5 75h110q2 -23 20 -38t41 -15h4q21 0 36 10t23 24q2 10 2 25t-2 25q-18 34 -59 34h-147v231h282v-99h-181v-42h62q39 0 73.5 -19t55.5 -52.5t21 -74.5v-5q0 -41 -23 -75t-61 -53t-82 -19h-4q-43 0 -81.5 17.5z" />
    <glyph glyph-name="six.dnom" horiz-adv-x="426" 
d="M306 271q35 -19 56 -52.5t21 -73.5v-6q0 -42 -23 -76.5t-61.5 -54t-81.5 -19.5h-4q-44 0 -82 19.5t-61 54t-23 76.5v6q0 21 7 45t27 58l105 180h114l-82 -139q3 1 9 1h4q40 0 75 -19zM276 142q0 23 -1 28q-5 13 -21.5 24t-36.5 11h-4q-20 0 -37 -11.5t-21 -23.5
q-2 -8 -2 -30q0 -18 2 -26q4 -13 21 -24t37 -11h4q20 0 36.5 11t21.5 24q1 3 1 28z" />
    <glyph glyph-name="seven.dnom" horiz-adv-x="422" 
d="M394 428v-1l-207 -427h-113l161 329h-185v99h344z" />
    <glyph glyph-name="eight.dnom" horiz-adv-x="427" 
d="M368 183q15 -25 15 -55v-6q0 -37 -22 -67.5t-60 -48t-85 -17.5h-4q-47 0 -85.5 17.5t-60.5 48t-22 67.5v6q0 30 15.5 55t43.5 43q-42 34 -42 84v6q0 53 42.5 88.5t108.5 35.5h4q65 0 108 -35.5t43 -88.5v-6q0 -24 -11 -46t-31 -38q28 -18 43 -43zM162 308q0 -11 2 -23
q5 -8 19 -15t29 -7h4q16 0 29 7t18 15q0 3 0.5 8t0.5 15q0 9 -0.5 14t-0.5 8q-5 8 -18 15t-29 7h-4q-15 0 -29 -7t-19 -15q-2 -12 -2 -22zM275 130q0 19 -1 23q-6 11 -23 19.5t-35 8.5h-4q-21 0 -37.5 -8.5t-21.5 -19.5q-2 -8 -2 -23t2 -25q6 -11 22.5 -19.5t36.5 -8.5h4
q20 0 36 8.5t22 19.5q1 5 1 25z" />
    <glyph glyph-name="nine.dnom" horiz-adv-x="421" 
d="M291.5 420.5q37.5 -19.5 60 -53.5t22.5 -76v-5q0 -45 -34 -103l-106 -183h-115l85 143h-7h-4q-39 0 -73.5 19t-55.5 51.5t-21 72.5v5q0 42 23 76t60.5 53.5t80.5 19.5h4q43 0 80.5 -19.5zM268 290q0 21 -1 27q-5 12 -21.5 22.5t-34.5 10.5h-4q-19 0 -35 -10.5t-20 -22.5
q-2 -12 -2 -30t2 -26q4 -12 20 -22t35 -10h4q19 0 35 10t21 22q1 4 1 29z" />
    <glyph glyph-name="zero.numr" horiz-adv-x="448" 
d="M134 264q-40 23 -63.5 66t-23.5 100v73q0 56 23.5 99t63.5 66.5t88 23.5h5q48 0 87.5 -23.5t63 -66.5t23.5 -99v-73q0 -57 -23.5 -100t-63 -66t-87.5 -23h-5q-48 0 -88 23zM227 334q20 0 36.5 10t21.5 22q3 18 3 100t-3 100q-5 13 -21.5 23t-36.5 10h-5q-19 0 -36 -9.5
t-23 -23.5q-2 -13 -2 -100t2 -100q5 -12 21.5 -22t37.5 -10h5z" />
    <glyph glyph-name="one.numr" horiz-adv-x="347" 
d="M242 252h-110v329h-78l47 99h141v-428z" />
    <glyph glyph-name="two.numr" horiz-adv-x="425" 
d="M372 351v-99h-336v1l179 220q31 40 36 56q2 6 2 26q0 19 -2 23q-4 9 -16.5 16.5t-26.5 7.5h-2q-19 0 -34.5 -13t-16.5 -36h-108q4 61 48 100t107 39h4q41 0 76 -18t55.5 -49t20.5 -69v-1q0 -33 -13.5 -61.5t-49.5 -72.5l-58 -70h135z" />
    <glyph glyph-name="three.numr" horiz-adv-x="448" 
d="M365.5 480q30.5 -38 30.5 -87v-5q0 -41 -23 -75t-61 -53t-82 -19h-4q-43 0 -82 17.5t-63 50t-26 75.5h109q3 -23 21 -38t41 -15h4q20 0 35 10t22 24q2 5 2 25q0 21 -2 25q-7 15 -21.5 24.5t-35.5 9.5h-104l88 132h-135v99h310v-1l-100 -147q46 -14 76.5 -52z" />
    <glyph glyph-name="four.numr" horiz-adv-x="474" 
d="M401 526v-274h-106v92h-260v2l163 334h112l-115 -238h100v84h106z" />
    <glyph glyph-name="five.numr" horiz-adv-x="444" 
d="M140.5 258.5q-38.5 17.5 -63 50.5t-26.5 75h110q2 -23 20 -38t41 -15h4q21 0 36 10t23 24q2 10 2 25t-2 25q-18 34 -59 34h-147v231h282v-99h-181v-42h62q39 0 73.5 -19t55.5 -52.5t21 -74.5v-5q0 -41 -23 -75t-61 -53t-82 -19h-4q-43 0 -81.5 17.5z" />
    <glyph glyph-name="six.numr" horiz-adv-x="426" 
d="M306 523q35 -19 56 -52.5t21 -73.5v-6q0 -42 -23 -76.5t-61.5 -54t-81.5 -19.5h-4q-44 0 -82 19.5t-61 54t-23 76.5v6q0 21 7 45t27 58l105 180h114l-82 -139q3 1 9 1h4q40 0 75 -19zM276 394q0 23 -1 28q-5 13 -21.5 24t-36.5 11h-4q-20 0 -37 -11.5t-21 -23.5
q-2 -8 -2 -30q0 -18 2 -26q4 -13 21 -24t37 -11h4q20 0 36.5 11t21.5 24q1 3 1 28z" />
    <glyph glyph-name="seven.numr" horiz-adv-x="422" 
d="M394 680v-1l-207 -427h-113l161 329h-185v99h344z" />
    <glyph glyph-name="eight.numr" horiz-adv-x="427" 
d="M368 435q15 -25 15 -55v-6q0 -37 -22 -67.5t-60 -48t-85 -17.5h-4q-47 0 -85.5 17.5t-60.5 48t-22 67.5v6q0 30 15.5 55t43.5 43q-42 34 -42 84v6q0 53 42.5 88.5t108.5 35.5h4q65 0 108 -35.5t43 -88.5v-6q0 -24 -11 -46t-31 -38q28 -18 43 -43zM162 560q0 -11 2 -23
q5 -8 19 -15t29 -7h4q16 0 29 7t18 15q0 3 0.5 8t0.5 15q0 9 -0.5 14t-0.5 8q-5 8 -18 15t-29 7h-4q-15 0 -29 -7t-19 -15q-2 -12 -2 -22zM275 382q0 19 -1 23q-6 11 -23 19.5t-35 8.5h-4q-21 0 -37.5 -8.5t-21.5 -19.5q-2 -8 -2 -23t2 -25q6 -11 22.5 -19.5t36.5 -8.5h4
q20 0 36 8.5t22 19.5q1 5 1 25z" />
    <glyph glyph-name="nine.numr" horiz-adv-x="421" 
d="M291.5 672.5q37.5 -19.5 60 -53.5t22.5 -76v-5q0 -45 -34 -103l-106 -183h-115l85 143h-7h-4q-39 0 -73.5 19t-55.5 51.5t-21 72.5v5q0 42 23 76t60.5 53.5t80.5 19.5h4q43 0 80.5 -19.5zM268 542q0 21 -1 27q-5 12 -21.5 22.5t-34.5 10.5h-4q-19 0 -35 -10.5t-20 -22.5
q-2 -12 -2 -30t2 -26q4 -12 20 -22t35 -10h4q19 0 35 10t21 22q1 4 1 29z" />
    <glyph glyph-name="uni2070" unicode="&#x2070;" horiz-adv-x="448" 
d="M134 362q-40 23 -63.5 66t-23.5 100v73q0 56 23.5 99t63.5 66.5t88 23.5h5q48 0 87.5 -23.5t63 -66.5t23.5 -99v-73q0 -57 -23.5 -100t-63 -66t-87.5 -23h-5q-48 0 -88 23zM227 432q20 0 36.5 10t21.5 22q3 18 3 100t-3 100q-5 13 -21.5 23t-36.5 10h-5q-19 0 -36 -9.5
t-23 -23.5q-2 -13 -2 -100t2 -100q5 -12 21.5 -22t37.5 -10h5z" />
    <glyph glyph-name="uni00B9" unicode="&#xb9;" horiz-adv-x="347" 
d="M242 350h-110v329h-78l47 99h141v-428z" />
    <glyph glyph-name="uni00B2" unicode="&#xb2;" horiz-adv-x="425" 
d="M372 449v-99h-336v1l179 220q31 40 36 56q2 6 2 26q0 19 -2 23q-4 9 -16.5 16.5t-26.5 7.5h-2q-19 0 -34.5 -13t-16.5 -36h-108q4 61 48 100t107 39h4q41 0 76 -18t55.5 -49t20.5 -69v-1q0 -33 -13.5 -61.5t-49.5 -72.5l-58 -70h135z" />
    <glyph glyph-name="uni00B3" unicode="&#xb3;" horiz-adv-x="448" 
d="M365.5 578q30.5 -38 30.5 -87v-5q0 -41 -23 -75t-61 -53t-82 -19h-4q-43 0 -82 17.5t-63 50t-26 75.5h109q3 -23 21 -38t41 -15h4q20 0 35 10t22 24q2 5 2 25q0 21 -2 25q-7 15 -21.5 24.5t-35.5 9.5h-104l88 132h-135v99h310v-1l-100 -147q46 -14 76.5 -52z" />
    <glyph glyph-name="uni2074" unicode="&#x2074;" horiz-adv-x="474" 
d="M401 624v-274h-106v92h-260v2l163 334h112l-115 -238h100v84h106z" />
    <glyph glyph-name="uni2075" unicode="&#x2075;" horiz-adv-x="444" 
d="M140.5 356.5q-38.5 17.5 -63 50.5t-26.5 75h110q2 -23 20 -38t41 -15h4q21 0 36 10t23 24q2 10 2 25t-2 25q-18 34 -59 34h-147v231h282v-99h-181v-42h62q39 0 73.5 -19t55.5 -52.5t21 -74.5v-5q0 -41 -23 -75t-61 -53t-82 -19h-4q-43 0 -81.5 17.5z" />
    <glyph glyph-name="uni2076" unicode="&#x2076;" horiz-adv-x="426" 
d="M306 621q35 -19 56 -52.5t21 -73.5v-6q0 -42 -23 -76.5t-61.5 -54t-81.5 -19.5h-4q-44 0 -82 19.5t-61 54t-23 76.5v6q0 21 7 45t27 58l105 180h114l-82 -139q3 1 9 1h4q40 0 75 -19zM276 492q0 23 -1 28q-5 13 -21.5 24t-36.5 11h-4q-20 0 -37 -11.5t-21 -23.5
q-2 -8 -2 -30q0 -18 2 -26q4 -13 21 -24t37 -11h4q20 0 36.5 11t21.5 24q1 3 1 28z" />
    <glyph glyph-name="uni2077" unicode="&#x2077;" horiz-adv-x="422" 
d="M394 778v-1l-207 -427h-113l161 329h-185v99h344z" />
    <glyph glyph-name="uni2078" unicode="&#x2078;" horiz-adv-x="427" 
d="M368 533q15 -25 15 -55v-6q0 -37 -22 -67.5t-60 -48t-85 -17.5h-4q-47 0 -85.5 17.5t-60.5 48t-22 67.5v6q0 30 15.5 55t43.5 43q-42 34 -42 84v6q0 53 42.5 88.5t108.5 35.5h4q65 0 108 -35.5t43 -88.5v-6q0 -24 -11 -46t-31 -38q28 -18 43 -43zM162 658q0 -11 2 -23
q5 -8 19 -15t29 -7h4q16 0 29 7t18 15q0 3 0.5 8t0.5 15q0 9 -0.5 14t-0.5 8q-5 8 -18 15t-29 7h-4q-15 0 -29 -7t-19 -15q-2 -12 -2 -22zM275 480q0 19 -1 23q-6 11 -23 19.5t-35 8.5h-4q-21 0 -37.5 -8.5t-21.5 -19.5q-2 -8 -2 -23t2 -25q6 -11 22.5 -19.5t36.5 -8.5h4
q20 0 36 8.5t22 19.5q1 5 1 25z" />
    <glyph glyph-name="uni2079" unicode="&#x2079;" horiz-adv-x="421" 
d="M291.5 770.5q37.5 -19.5 60 -53.5t22.5 -76v-5q0 -45 -34 -103l-106 -183h-115l85 143h-7h-4q-39 0 -73.5 19t-55.5 51.5t-21 72.5v5q0 42 23 76t60.5 53.5t80.5 19.5h4q43 0 80.5 -19.5zM268 640q0 21 -1 27q-5 12 -21.5 22.5t-34.5 10.5h-4q-19 0 -35 -10.5t-20 -22.5
q-2 -12 -2 -30t2 -26q4 -12 20 -22t35 -10h4q19 0 35 10t21 22q1 4 1 29z" />
    <glyph glyph-name="fraction" unicode="&#x2044;" horiz-adv-x="251" 
d="M319 680h119l-505 -680h-119z" />
    <glyph glyph-name="onehalf" unicode="&#xbd;" horiz-adv-x="1023" 
d="M242 252h-110v329h-78l47 99h141v-428zM666 680h119l-505 -680h-119zM970 99v-99h-336v1l179 220q31 40 36 56q2 6 2 26q0 19 -2 23q-4 9 -16.5 16.5t-26.5 7.5h-2q-19 0 -34.5 -13t-16.5 -36h-108q4 61 48 100t107 39h4q41 0 76 -18t55.5 -49t20.5 -69v-1
q0 -33 -13.5 -61.5t-49.5 -72.5l-58 -70h135z" />
    <glyph glyph-name="onequarter" unicode="&#xbc;" horiz-adv-x="1032" 
d="M242 252h-110v329h-78l47 99h141v-428zM666 680h119l-505 -680h-119zM959 274v-274h-106v92h-260v2l163 334h112l-115 -238h100v84h106z" />
    <glyph glyph-name="threequarters" unicode="&#xbe;" horiz-adv-x="1133" 
d="M365.5 480q30.5 -38 30.5 -87v-5q0 -41 -23 -75t-61 -53t-82 -19h-4q-43 0 -82 17.5t-63 50t-26 75.5h109q3 -23 21 -38t41 -15h4q20 0 35 10t22 24q2 5 2 25q0 21 -2 25q-7 15 -21.5 24.5t-35.5 9.5h-104l88 132h-135v99h310v-1l-100 -147q46 -14 76.5 -52zM767 680h119
l-505 -680h-119zM1060 274v-274h-106v92h-260v2l163 334h112l-115 -238h100v84h106z" />
    <glyph glyph-name="oneeighth" unicode="&#x215b;" horiz-adv-x="1026" 
d="M242 252h-110v329h-78l47 99h141v-428zM666 680h119l-505 -680h-119zM966 183q15 -25 15 -55v-6q0 -37 -22 -67.5t-60 -48t-85 -17.5h-4q-47 0 -85.5 17.5t-60.5 48t-22 67.5v6q0 30 15.5 55t43.5 43q-42 34 -42 84v6q0 53 42.5 88.5t108.5 35.5h4q65 0 108 -35.5
t43 -88.5v-6q0 -24 -11 -46t-31 -38q28 -18 43 -43zM760 308q0 -11 2 -23q5 -8 19 -15t29 -7h4q16 0 29 7t18 15q0 3 0.5 8t0.5 15q0 9 -0.5 14t-0.5 8q-5 8 -18 15t-29 7h-4q-15 0 -29 -7t-19 -15q-2 -12 -2 -22zM873 130q0 19 -1 23q-6 11 -23 19.5t-35 8.5h-4
q-21 0 -37.5 -8.5t-21.5 -19.5q-2 -8 -2 -23t2 -25q6 -11 22.5 -19.5t36.5 -8.5h4q20 0 36 8.5t22 19.5q1 5 1 25z" />
    <glyph glyph-name="threeeighths" unicode="&#x215c;" horiz-adv-x="1127" 
d="M365.5 480q30.5 -38 30.5 -87v-5q0 -41 -23 -75t-61 -53t-82 -19h-4q-43 0 -82 17.5t-63 50t-26 75.5h109q3 -23 21 -38t41 -15h4q20 0 35 10t22 24q2 5 2 25q0 21 -2 25q-7 15 -21.5 24.5t-35.5 9.5h-104l88 132h-135v99h310v-1l-100 -147q46 -14 76.5 -52zM767 680h119
l-505 -680h-119zM1067 183q15 -25 15 -55v-6q0 -37 -22 -67.5t-60 -48t-85 -17.5h-4q-47 0 -85.5 17.5t-60.5 48t-22 67.5v6q0 30 15.5 55t43.5 43q-42 34 -42 84v6q0 53 42.5 88.5t108.5 35.5h4q65 0 108 -35.5t43 -88.5v-6q0 -24 -11 -46t-31 -38q28 -18 43 -43zM861 308
q0 -11 2 -23q5 -8 19 -15t29 -7h4q16 0 29 7t18 15q0 3 0.5 8t0.5 15q0 9 -0.5 14t-0.5 8q-5 8 -18 15t-29 7h-4q-15 0 -29 -7t-19 -15q-2 -12 -2 -22zM974 130q0 19 -1 23q-6 11 -23 19.5t-35 8.5h-4q-21 0 -37.5 -8.5t-21.5 -19.5q-2 -8 -2 -23t2 -25q6 -11 22.5 -19.5
t36.5 -8.5h4q20 0 36 8.5t22 19.5q1 5 1 25z" />
    <glyph glyph-name="fiveeighths" unicode="&#x215d;" horiz-adv-x="1123" 
d="M140.5 258.5q-38.5 17.5 -63 50.5t-26.5 75h110q2 -23 20 -38t41 -15h4q21 0 36 10t23 24q2 10 2 25t-2 25q-18 34 -59 34h-147v231h282v-99h-181v-42h62q39 0 73.5 -19t55.5 -52.5t21 -74.5v-5q0 -41 -23 -75t-61 -53t-82 -19h-4q-43 0 -81.5 17.5zM763 680h119
l-505 -680h-119zM1063 183q15 -25 15 -55v-6q0 -37 -22 -67.5t-60 -48t-85 -17.5h-4q-47 0 -85.5 17.5t-60.5 48t-22 67.5v6q0 30 15.5 55t43.5 43q-42 34 -42 84v6q0 53 42.5 88.5t108.5 35.5h4q65 0 108 -35.5t43 -88.5v-6q0 -24 -11 -46t-31 -38q28 -18 43 -43zM857 308
q0 -11 2 -23q5 -8 19 -15t29 -7h4q16 0 29 7t18 15q0 3 0.5 8t0.5 15q0 9 -0.5 14t-0.5 8q-5 8 -18 15t-29 7h-4q-15 0 -29 -7t-19 -15q-2 -12 -2 -22zM970 130q0 19 -1 23q-6 11 -23 19.5t-35 8.5h-4q-21 0 -37.5 -8.5t-21.5 -19.5q-2 -8 -2 -23t2 -25q6 -11 22.5 -19.5
t36.5 -8.5h4q20 0 36 8.5t22 19.5q1 5 1 25z" />
    <glyph glyph-name="seveneighths" unicode="&#x215e;" horiz-adv-x="1042" 
d="M394 680v-1l-207 -427h-113l161 329h-185v99h344zM682 680h119l-505 -680h-119zM982 183q15 -25 15 -55v-6q0 -37 -22 -67.5t-60 -48t-85 -17.5h-4q-47 0 -85.5 17.5t-60.5 48t-22 67.5v6q0 30 15.5 55t43.5 43q-42 34 -42 84v6q0 53 42.5 88.5t108.5 35.5h4
q65 0 108 -35.5t43 -88.5v-6q0 -24 -11 -46t-31 -38q28 -18 43 -43zM776 308q0 -11 2 -23q5 -8 19 -15t29 -7h4q16 0 29 7t18 15q0 3 0.5 8t0.5 15q0 9 -0.5 14t-0.5 8q-5 8 -18 15t-29 7h-4q-15 0 -29 -7t-19 -15q-2 -12 -2 -22zM889 130q0 19 -1 23q-6 11 -23 19.5
t-35 8.5h-4q-21 0 -37.5 -8.5t-21.5 -19.5q-2 -8 -2 -23t2 -25q6 -11 22.5 -19.5t36.5 -8.5h4q20 0 36 8.5t22 19.5q1 5 1 25z" />
    <glyph glyph-name="period" unicode="." horiz-adv-x="299" 
d="M70 159h159v-159h-159v159z" />
    <glyph glyph-name="comma" unicode="," horiz-adv-x="279" 
d="M70 159h139v-183l-138 -102h-1v285z" />
    <glyph glyph-name="colon" unicode=":" horiz-adv-x="319" 
d="M80 159h159v-159h-159v159zM80 493h159v-159h-159v159z" />
    <glyph glyph-name="semicolon" unicode=";" horiz-adv-x="319" 
d="M94 159h139v-183l-138 -102h-1v285zM80 493h159v-159h-159v159z" />
    <glyph glyph-name="ellipsis" unicode="&#x2026;" horiz-adv-x="874" 
d="M644 159h159v-159h-159v159zM357 159h159v-159h-159v159zM70 159h159v-159h-159v159z" />
    <glyph glyph-name="exclam" unicode="!" horiz-adv-x="360" 
d="M95 680h170l-22 -437h-126zM101 159h158v-159h-158v159z" />
    <glyph glyph-name="exclamdown" unicode="&#xa1;" horiz-adv-x="360" 
d="M259 334h-158v159h158v-159zM265 -187h-170l22 437h126z" />
    <glyph glyph-name="question" unicode="?" horiz-adv-x="520" 
d="M271 354q31 46 43.5 69t16.5 38q2 10 2 34q0 23 -2 33q-6 17 -24 29.5t-40 12.5h-4q-31 0 -51.5 -19.5t-23.5 -53.5h-150q4 57 35 101.5t80.5 69.5t106.5 25h6q57 0 106 -25t78 -69t29 -99v-8q0 -43 -21.5 -82t-72.5 -108l-44 -59h-145zM187 159h159v-159h-159v159z" />
    <glyph glyph-name="questiondown" unicode="&#xbf;" horiz-adv-x="480" 
d="M333 334h-159v159h159v-159zM249 139q-31 -45 -43.5 -68t-16.5 -38q-2 -12 -2 -35t2 -33q6 -17 24 -29.5t40 -12.5h4q31 0 51.5 19.5t23.5 53.5h149q-3 -57 -34 -101.5t-80.5 -69.5t-106.5 -25h-6q-57 0 -106 25t-78 69t-29 99v8q0 43 22 83t72 107l44 60h145z" />
    <glyph glyph-name="periodcentered" unicode="&#xb7;" horiz-adv-x="299" 
d="M70 399h159v-159h-159v159z" />
    <glyph glyph-name="bullet" unicode="&#x2022;" horiz-adv-x="562" 
d="M182 156.5q-45 26.5 -71.5 71.5t-26.5 98t26.5 98t71.5 71.5t99 26.5t99 -26.5t71.5 -71.5t26.5 -98t-26.5 -98t-71.5 -71.5t-99 -26.5t-99 26.5z" />
    <glyph glyph-name="asterisk" unicode="*" horiz-adv-x="543" 
d="M322 521l141 -47l-55 -95l-111 99l30 -146h-111l30 145l-111 -98l-54 95l141 47l-141 47l54 95l111 -99l-30 146h111l-30 -145l111 98l55 -95z" />
    <glyph glyph-name="numbersign" unicode="#" horiz-adv-x="718" 
d="M528 412l-30 -143h144l-16 -75h-144l-41 -194h-76l41 194h-157l-41 -194h-76l41 194h-143l15 75h144l30 143h-143l15 75h144l41 193h76l-41 -193h157l41 193h76l-41 -193h144l-16 -75h-144zM452 412h-157l-30 -143h157z" />
    <glyph glyph-name="slash" unicode="/" horiz-adv-x="510" 
d="M330 710h130l-290 -790h-130z" />
    <glyph glyph-name="backslash" unicode="\" horiz-adv-x="510" 
d="M340 -80l-290 790h130l290 -790h-130z" />
    <glyph glyph-name="parenleft" unicode="(" horiz-adv-x="364" 
d="M110.5 95.5q-30.5 89.5 -30.5 207.5v34q0 118 30.5 207.5t80.5 165.5h132q-37 -52 -62.5 -133.5t-33.5 -161.5q-2 -32 -2 -95t2 -95q8 -80 33.5 -161.5t62.5 -133.5h-132q-50 76 -80.5 165.5z" />
    <glyph glyph-name="parenright" unicode=")" horiz-adv-x="364" 
d="M252.5 544.5q30.5 -89.5 30.5 -207.5v-34q0 -118 -30.5 -207.5t-80.5 -165.5h-131q37 52 62.5 133.5t33.5 161.5q2 32 2 95t-2 95q-8 80 -33.5 161.5t-62.5 133.5h131q50 -76 80.5 -165.5z" />
    <glyph glyph-name="braceleft" unicode="{" horiz-adv-x="398" 
d="M229.5 365q-28.5 -32 -63.5 -45q35 -13 63.5 -45t28.5 -86v-114q13 -40 65 -40h26v-105h-38q-95 0 -146 50.5t-51 164.5v87q-11 35 -50 35h-13v107h13q40 0 50 34v87q0 114 51 164.5t146 50.5h38v-105h-26q-52 0 -65 -40v-114q0 -54 -28.5 -86z" />
    <glyph glyph-name="braceright" unicode="}" horiz-adv-x="398" 
d="M347 374v-108h-13q-40 0 -50 -34v-87q0 -114 -51 -164.5t-146 -50.5h-37v105h26q51 0 64 40v114q0 54 28.5 85.5t63.5 45.5q-35 14 -63.5 45.5t-28.5 85.5v114q-13 40 -64 40h-26v105h37q95 0 146 -50.5t51 -164.5v-87q10 -34 50 -34h13z" />
    <glyph glyph-name="bracketleft" unicode="[" horiz-adv-x="397" 
d="M220 605v-570h130v-105h-266v780h266v-105h-130z" />
    <glyph glyph-name="bracketright" unicode="]" horiz-adv-x="397" 
d="M313 -70h-266v105h130v570h-130v105h266v-780z" />
    <glyph glyph-name="hyphen" unicode="-" horiz-adv-x="393" 
d="M60 369h273v-135h-273v135z" />
    <glyph glyph-name="uni00AD" unicode="&#xad;" horiz-adv-x="393" 
d="M60 369h273v-135h-273v135z" />
    <glyph glyph-name="endash" unicode="&#x2013;" horiz-adv-x="733" 
d="M70 363h593v-123h-593v123z" />
    <glyph glyph-name="emdash" unicode="&#x2014;" horiz-adv-x="1033" 
d="M70 363h893v-123h-893v123z" />
    <glyph glyph-name="underscore" unicode="_" horiz-adv-x="526" 
d="M-5 -71h536v-68h-536v68z" />
    <glyph glyph-name="quotesinglbase" unicode="&#x201a;" horiz-adv-x="275" 
d="M70 159h135v-181l-134 -99h-1v280z" />
    <glyph glyph-name="quotedblbase" unicode="&#x201e;" horiz-adv-x="491" 
d="M70 159h135v-181l-134 -99h-1v280zM286 159h135v-181l-134 -99h-1v280z" />
    <glyph glyph-name="quotedblleft" unicode="&#x201c;" horiz-adv-x="491" 
d="M205 412h-135v181l134 99h1v-280zM421 412h-135v181l134 99h1v-280z" />
    <glyph glyph-name="quotedblright" unicode="&#x201d;" horiz-adv-x="491" 
d="M70 680h135v-181l-134 -99h-1v280zM286 680h135v-181l-134 -99h-1v280z" />
    <glyph glyph-name="quoteleft" unicode="&#x2018;" horiz-adv-x="275" 
d="M205 412h-135v181l134 99h1v-280z" />
    <glyph glyph-name="quoteright" unicode="&#x2019;" horiz-adv-x="275" 
d="M70 680h135v-181l-134 -99h-1v280z" />
    <glyph glyph-name="guillemotleft" unicode="&#xab;" horiz-adv-x="627" 
d="M282 262l147 197h127l-151 -197l151 -197h-127zM63 262l147 197h127l-151 -197l151 -197h-127z" />
    <glyph glyph-name="guillemotright" unicode="&#xbb;" horiz-adv-x="627" 
d="M289 65l151 197l-151 197h127l147 -197l-147 -197h-127zM70 65l151 197l-151 197h127l147 -197l-147 -197h-127z" />
    <glyph glyph-name="guilsinglleft" unicode="&#x2039;" horiz-adv-x="408" 
d="M63 262l147 197h127l-151 -197l151 -197h-127z" />
    <glyph glyph-name="guilsinglright" unicode="&#x203a;" horiz-adv-x="408" 
d="M70 65l151 197l-151 197h127l147 -197l-147 -197h-127z" />
    <glyph glyph-name="quotedbl" unicode="&#x22;" horiz-adv-x="491" 
d="M70 680h135v-257h-135v257zM286 680h135v-257h-135v257z" />
    <glyph glyph-name="quotesingle" unicode="'" horiz-adv-x="275" 
d="M70 680h135v-257h-135v257z" />
    <glyph glyph-name="cent" unicode="&#xa2;" horiz-adv-x="510" 
d="M361 486v-279q51 7 109 50v-132q-17 -13 -46.5 -24.5t-62.5 -15.5v-85h-60v84q-61 5 -113.5 35.5t-85 86.5t-32.5 133v16q0 76 32.5 132t85 86.5t113.5 35.5v71h60v-72q34 -4 63 -15t46 -24v-132q-56 42 -109 49zM255.5 230.5q19.5 -14.5 45.5 -20.5v273
q-26 -6 -45.5 -20t-28.5 -30q-5 -22 -5 -86q0 -63 5 -86q9 -16 28.5 -30.5z" />
    <glyph glyph-name="currency" unicode="&#xa4;" horiz-adv-x="695" 
d="M532 183l65 -65l-53 -53l-65 65q-60 -42 -132 -42q-74 0 -132 42l-64 -65l-53 53l65 64q-43 59 -43 133q0 72 42 132l-64 64l53 53l64 -64q60 42 132 42q74 0 133 -43l64 65l53 -53l-65 -64q42 -61 42 -132q0 -72 -42 -132zM232 247q18 -31 48.5 -49t66.5 -18t66.5 18
t48.5 49t18 68q0 36 -18 67t-48.5 49t-66.5 18t-66.5 -18t-48.5 -49t-18 -67q0 -37 18 -68z" />
    <glyph glyph-name="dollar" unicode="$" horiz-adv-x="618" 
d="M509 303q37 -44 37 -112v-3q0 -52 -24 -95.5t-67.5 -72t-99.5 -35.5v-74h-60v73q-65 4 -114.5 32.5t-77.5 75t-28 102.5h138q2 -37 25 -61.5t57 -30.5v189l-85 46q-48 27 -81.5 68.5t-33.5 99.5v3q0 51 27 93.5t73 68t100 27.5v54h60v-58q60 -10 105 -42.5t72 -74.5
l-102 -72q-35 49 -75 66v-159l59 -32q58 -32 95 -76zM295 444v133q-28 -4 -45.5 -23.5t-16.5 -51.5q13 -30 62 -58zM398 139q15 24 13 58q-10 31 -56 60v-151q28 9 43 33z" />
    <glyph glyph-name="Euro" unicode="&#x20ac;" horiz-adv-x="645" 
d="M353.5 533q-36.5 -29 -47.5 -74h193v-74h-197v-66h197v-75h-197q4 -54 42.5 -90.5t100.5 -36.5h8q55 0 101 23v-131q-49 -26 -112 -26h-7q-71 0 -130.5 30t-99 89t-52.5 142h-70v75h65v43v23h-65v74h74q24 114 99.5 176t178.5 62h7q61 0 112 -27v-131q-46 23 -101 23h-8
q-55 0 -91.5 -29z" />
    <glyph glyph-name="florin" unicode="&#x192;" horiz-adv-x="511" 
d="M461 713.5q20 -2.5 30 -5.5l-25 -113q-12 2 -24 2q-38 0 -57 -28l-16 -76h71v-109h-94l-94 -439q-16 -73 -63.5 -109t-116.5 -36q-22 0 -42 2.5t-30 5.5l24 113q12 -2 24 -2q39 0 58 28l93 437h-66v109h89l17 78q15 73 63 109t117 36q22 0 42 -2.5z" />
    <glyph glyph-name="sterling" unicode="&#xa3;" horiz-adv-x="673" 
d="M260 134h344v-134h-503v134q25 1 44 21t24 42v78h-88v103h88v107q0 61 26.5 109t76 75.5t116.5 27.5h6q79 0 134 -35t86 -88l-99 -72q-53 76 -116 76h-4q-33 0 -54.5 -18t-28.5 -44v-138h157v-103h-157v-28q0 -61 -52 -113z" />
    <glyph glyph-name="yen" unicode="&#xa5;" horiz-adv-x="682" 
d="M435 331h114v-75h-128v-66h128v-74h-128v-116h-152v116h-136v74h136v66h-136v75h115l-210 349h172l137 -240l136 240h161z" />
    <glyph glyph-name="plus" unicode="+" horiz-adv-x="645" 
d="M575 264h-192v-194h-121v194h-192v116h192v194h121v-194h192v-116z" />
    <glyph glyph-name="minus" unicode="&#x2212;" horiz-adv-x="645" 
d="M70 380h505v-116h-505v116z" />
    <glyph glyph-name="multiply" unicode="&#xd7;" horiz-adv-x="625" 
d="M397 321l157 -158l-83 -82l-157 157l-158 -158l-86 85l159 159l-158 157l83 82l157 -157l158 158l86 -85z" />
    <glyph glyph-name="divide" unicode="&#xf7;" horiz-adv-x="645" 
d="M70 380h505v-116h-505v116zM240 574h163v-140h-163v140zM240 205h163v-140h-163v140z" />
    <glyph glyph-name="equal" unicode="=" horiz-adv-x="645" 
d="M70 275h505v-116h-505v116zM70 485h505v-116h-505v116z" />
    <glyph glyph-name="notequal" unicode="&#x2260;" horiz-adv-x="645" 
d="M399 368l-40 -92h216v-117h-265l-38 -89h-112l38 89h-128v117h178l39 92h-217v117h267l38 89h111l-38 -89h127v-117h-176z" />
    <glyph glyph-name="greater" unicode="&#x3e;" horiz-adv-x="645" 
d="M575 325v-4l-505 -222v116l263 108l-263 106v116z" />
    <glyph glyph-name="less" unicode="&#x3c;" horiz-adv-x="645" 
d="M575 429l-263 -106l263 -108v-116l-505 222v4l505 220v-116z" />
    <glyph glyph-name="greaterequal" unicode="&#x2265;" horiz-adv-x="645" 
d="M575 344v-4l-505 -193v117l216 78l-216 77v117zM70 117h505v-117h-505v117z" />
    <glyph glyph-name="lessequal" unicode="&#x2264;" horiz-adv-x="600" 
d="M556 419l-216 -77l216 -78v-117l-505 193v4l505 192v-117zM51 117h505v-117h-505v117z" />
    <glyph glyph-name="plusminus" unicode="&#xb1;" horiz-adv-x="645" 
d="M575 443v-117h-192v-154h-121v154h-192v117h192v155h121v-155h192zM70 117h505v-117h-505v117z" />
    <glyph glyph-name="approxequal" unicode="&#x2248;" horiz-adv-x="645" 
d="M403 346q-31 7 -80 21q-46 14 -78.5 21.5t-65.5 7.5q-31 0 -57.5 -11t-51.5 -36v115q17 18 44.5 29t64.5 11q33 0 65.5 -7.5t78.5 -21.5q49 -14 80 -21t63 -7q62 0 109 47v-116q-17 -18 -44.5 -28.5t-64.5 -10.5q-32 0 -63 7zM403 138q-31 7 -80 21q-46 14 -78.5 21.5
t-65.5 7.5q-62 0 -109 -47v115q17 18 45 28.5t64 10.5q33 0 64 -7t80 -21t80 -21t63 -7q31 0 57.5 10.5t51.5 35.5v-114q-37 -40 -109 -40q-32 0 -63 7z" />
    <glyph glyph-name="logicalnot" unicode="&#xac;" horiz-adv-x="645" 
d="M575 380v-276h-121v160h-384v116h505z" />
    <glyph glyph-name="asciitilde" unicode="~" horiz-adv-x="677" 
d="M113 379.5q41 53.5 113 53.5q32 0 60 -11.5t67 -34.5q32 -18 52.5 -27t40.5 -9q31 0 45.5 20t17.5 62h98q-2 -81 -42.5 -134.5t-113.5 -53.5q-32 0 -60 11.5t-67 34.5q-30 18 -51 27t-41 9q-31 0 -46 -20t-18 -62h-98q2 81 43 134.5z" />
    <glyph glyph-name="asciicircum" unicode="^" horiz-adv-x="595" 
d="M405 284l-108 198l-109 -198h-104l212 396h4l211 -396h-106z" />
    <glyph glyph-name="infinity" unicode="&#x221e;" horiz-adv-x="792" 
d="M127 148.5q-38 20.5 -60.5 56.5t-22.5 79q0 45 22.5 81.5t61.5 57t88 20.5q52 0 95.5 -26t88.5 -74q48 49 89 74.5t98 25.5q72 0 116.5 -43t44.5 -111v-1q0 -47 -23.5 -83.5t-62 -56.5t-82.5 -20q-46 0 -87.5 23t-94.5 77q-45 -48 -89 -74t-100 -26q-44 0 -82 20.5z
M283 222.5q30 21.5 64 58.5q-37 45 -66.5 68t-70.5 23q-37 0 -59 -25.5t-22 -63.5q0 -35 24.5 -58.5t62.5 -23.5q37 0 67 21.5zM640.5 226q21.5 25 21.5 58q0 42 -22 65t-58 23q-32 0 -61.5 -19t-70.5 -65q43 -48 71.5 -67.5t61.5 -19.5q36 0 57.5 25z" />
    <glyph glyph-name="integral" unicode="&#x222b;" horiz-adv-x="511" 
d="M30 -197.5q-20 2.5 -30 5.5l24 113q12 -2 24 -2q39 0 58 28l133 624q15 73 63 109t117 36q22 0 42 -2.5t30 -5.5l-25 -113q-12 2 -24 2q-38 0 -57 -28l-133 -624q-16 -73 -63.5 -109t-116.5 -36q-22 0 -42 2.5z" />
    <glyph glyph-name="product" unicode="&#x220f;" horiz-adv-x="719" 
d="M635 -100h-154v646h-243v-646h-154v780h551v-780z" />
    <glyph glyph-name="summation" unicode="&#x2211;" horiz-adv-x="604" 
d="M10 -98l238 388l-238 388v2h558v-134h-308l157 -256l-157 -256h308v-134h-558v2z" />
    <glyph glyph-name="radical" unicode="&#x221a;" horiz-adv-x="645" 
d="M636 680l-358 -705h-2l-266 518h154l118 -235l211 422h143z" />
    <glyph glyph-name="uni00B5" unicode="&#xb5;" horiz-adv-x="594" 
d="M519 493v-493h-137v40q-43 -54 -104 -54h-2q-30 0 -55 14v-200h-146v693h146v-341q8 -18 27.5 -30.5t45.5 -12.5h2q24 0 44.5 11.5t32.5 29.5v343h146z" />
    <glyph glyph-name="partialdiff" unicode="&#x2202;" horiz-adv-x="591" 
d="M441 554q50 -73 78 -147.5t28 -131.5v-58q0 -66 -34 -119.5t-91 -84t-123 -30.5h-6q-66 0 -123.5 30.5t-91.5 84t-34 119.5v8q0 65 32 117t85 82t113 30h6q47 0 83 -18q-66 130 -190 244h157q61 -53 111 -126zM401 221q0 33 -2 47q-7 26 -36 47.5t-64 21.5h-6
q-36 0 -64.5 -21.5t-36.5 -47.5q-2 -14 -2 -47q0 -32 2 -46q8 -26 36.5 -47.5t64.5 -21.5h6q35 0 64 21.5t36 47.5q2 14 2 46z" />
    <glyph glyph-name="percent" unicode="%" horiz-adv-x="903" 
d="M144 389q-39 22 -61.5 60t-22.5 83t22.5 83t61.5 60t85 22q47 0 85.5 -22t61 -60t22.5 -83t-22.5 -83t-61 -60t-85.5 -22q-46 0 -85 22zM644 680h119l-505 -680h-119zM271.5 468q18.5 12 23.5 29q2 22 2 35t-2 35q-5 17 -23.5 29t-42.5 12t-42.5 -12.5t-23.5 -28.5
q-1 -11 -1 -35t1 -35q5 -16 23.5 -28.5t42.5 -12.5t42.5 12zM588.5 5q-38.5 22 -61 60t-22.5 83t22.5 83t61 60t84.5 22q47 0 85.5 -22t61 -60t22.5 -83t-22.5 -83t-61 -60t-85.5 -22q-46 0 -84.5 22zM715.5 84q18.5 12 23.5 29q2 22 2 35t-2 35q-5 17 -23 29t-43 12
q-24 0 -42 -12t-23 -29q-1 -11 -1 -35t1 -35q5 -17 23 -29t42 -12t42.5 12z" />
    <glyph glyph-name="perthousand" unicode="&#x2030;" horiz-adv-x="1287" 
d="M144 389q-39 22 -61.5 60t-22.5 83t22.5 83t61.5 60t85 22q47 0 85.5 -22t61 -60t22.5 -83t-22.5 -83t-61 -60t-85.5 -22q-46 0 -85 22zM644 680h119l-505 -680h-119zM271.5 468q18.5 12 23.5 29q2 22 2 35t-2 35q-5 17 -23.5 29t-42.5 12t-42.5 -12.5t-23.5 -28.5
q-1 -11 -1 -35t1 -35q5 -16 23.5 -28.5t42.5 -12.5t42.5 12zM588.5 5q-38.5 22 -61 60t-22.5 83t22.5 83t61 60t84.5 22q47 0 85.5 -22t61 -60t22.5 -83t-22.5 -83t-61 -60t-85.5 -22q-46 0 -84.5 22zM972.5 5q-38.5 22 -61 60t-22.5 83t22.5 83t61 60t84.5 22
q47 0 85.5 -22t61 -60t22.5 -83t-22.5 -83t-61 -60t-85.5 -22q-46 0 -84.5 22zM715.5 84q18.5 12 23.5 29q2 22 2 35t-2 35q-5 17 -23 29t-43 12q-24 0 -42 -12t-23 -29q-1 -11 -1 -35t1 -35q5 -17 23 -29t42 -12t42.5 12zM1099.5 84q18.5 12 23.5 29q2 22 2 35t-2 35
q-5 17 -23 29t-43 12q-24 0 -42.5 -12t-23.5 -29q-1 -11 -1 -35t1 -35q6 -17 24 -29t42 -12t42.5 12z" />
    <glyph glyph-name="uni25CF" unicode="&#x25cf;" horiz-adv-x="806" 
d="M226 34.5q-81 47.5 -128.5 128.5t-47.5 177t47.5 177t128.5 128.5t177 47.5t177 -47.5t128.5 -128.5t47.5 -177t-47.5 -177t-128.5 -128.5t-177 -47.5t-177 47.5z" />
    <glyph glyph-name="circle" unicode="&#x25cb;" horiz-adv-x="806" 
d="M226 34.5q-81 47.5 -128.5 128.5t-47.5 177t47.5 177t128.5 128.5t177 47.5t177 -47.5t128.5 -128.5t47.5 -177t-47.5 -177t-128.5 -128.5t-177 -47.5t-177 47.5zM519.5 139q53.5 31 84.5 84.5t31 116.5t-31 116.5t-84.5 84.5t-116.5 31t-116.5 -31t-84.5 -84.5
t-31 -116.5t31 -116.5t84.5 -84.5t116.5 -31t116.5 31z" />
    <glyph glyph-name="lozenge" unicode="&#x25ca;" horiz-adv-x="685" 
d="M47 340l185 340h221l185 -340l-185 -340h-221zM469 340l-126 246l-128 -246l128 -246z" />
    <glyph glyph-name="at" unicode="@" horiz-adv-x="892" 
d="M651.5 592q88.5 -41 141 -119.5t52.5 -185.5q0 -75 -27 -129.5t-71 -82.5t-94 -28q-43 0 -73.5 17.5t-42.5 47.5q-27 -35 -64 -50t-74 -15q-47 0 -83 22t-56.5 60.5t-20.5 86.5q0 59 25.5 111.5t71.5 84.5t106 32q37 0 68.5 -14.5t48.5 -42.5l8 38h88l-44 -211
q-4 -19 -4 -38q0 -61 54 -61q27 0 49.5 23t35.5 62.5t13 87.5q0 86 -41 147.5t-109.5 93t-151.5 31.5q-91 0 -163.5 -41t-113.5 -113.5t-41 -164.5q0 -91 38 -159t107 -104.5t158 -36.5q38 0 75.5 7t64.5 19l23 -68q-34 -15 -76.5 -23t-86.5 -8q-114 0 -204 46t-140.5 130.5
t-50.5 196.5t54 201.5t147.5 140t208.5 50.5q106 0 194.5 -41zM497.5 172.5q30.5 43.5 30.5 102.5q0 41 -20 65t-56 24q-50 0 -79.5 -40.5t-29.5 -100.5q0 -44 18.5 -69t55.5 -25q50 0 80.5 43.5z" />
    <glyph glyph-name="ampersand" unicode="&#x26;" horiz-adv-x="681" 
d="M523 0l-56 59q-45 -38 -89 -57t-99 -19h-5q-67 0 -117.5 24.5t-78 64.5t-27.5 85v6q0 50 27 87.5t91 88.5l18 14l-16 17q-41 43 -57 81t-16 76v5q0 42 26 79.5t72 61t102 23.5h5q57 0 103.5 -23.5t73 -61t26.5 -79.5v-5q0 -38 -18 -73t-63 -71l-52 -42l106 -113l43 43
h161l-126 -126l136 -145h-170zM248.5 574q-20.5 -18 -21.5 -48q5 -21 20 -44.5t45 -54.5l27 22q29 23 42.5 41t16.5 36q-1 31 -23.5 48.5t-51.5 17.5h-4q-30 0 -50.5 -18zM389 141l-122 128q-41 -34 -56.5 -51.5t-21.5 -37.5q0 -37 28 -61t66 -24h5q46 0 101 46z" />
    <glyph glyph-name="paragraph" unicode="&#xb6;" horiz-adv-x="718" 
d="M634 606h-56v-686h-95v686h-94v-686h-87v309h-25q-64 0 -117.5 27t-85 77t-31.5 117v9q0 67 31.5 117t85 77t117.5 27h357v-74z" />
    <glyph glyph-name="section" unicode="&#xa7;" horiz-adv-x="656" 
d="M542.5 349q29.5 -34 29.5 -83v-2q0 -44 -26.5 -80.5t-72.5 -54.5q37 -41 37 -94v-2q0 -42 -22 -76.5t-60 -54.5t-83 -20h-4q-61 0 -104.5 27.5t-68.5 68.5l93 66q21 -26 37.5 -38t36.5 -12h4q17 0 29 9.5t13 29.5q-7 15 -40 37l-150 95q-47 31 -77 65.5t-30 83.5v2
q0 44 26.5 80t72.5 54q-37 41 -37 94v2q0 42 22 76.5t60 54.5t83 20h4q61 0 104.5 -27.5t68.5 -68.5l-93 -66q-22 27 -38 39t-36 12h-4q-17 0 -29 -10t-13 -29q7 -16 40 -37l150 -96q48 -31 77.5 -65zM228.5 292.5q8.5 -7.5 19 -14t14.5 -9.5l93 -58h25q27 0 45 15.5
t18 40.5q-6 12 -15.5 20t-19.5 14.5t-13 8.5l-94 58h-25q-27 0 -45 -15.5t-17 -40.5q6 -12 14.5 -19.5z" />
    <glyph glyph-name="copyright" unicode="&#xa9;" horiz-adv-x="796" 
d="M219 32q-82 48 -130.5 130t-48.5 178t48.5 178t130.5 130t179 48t179 -48t130.5 -130t48.5 -178t-48.5 -178t-130.5 -130t-179 -48t-179 48zM549.5 79q69.5 41 110 110.5t40.5 150.5t-40.5 150.5t-110 110.5t-151.5 41t-151 -41t-109.5 -110.5t-40.5 -150.5t40.5 -150.5
t109.5 -110.5t151 -41t151.5 41zM300.5 148q-50.5 26 -79.5 74.5t-29 111.5v15q0 66 29 114t79 73t113 25h5q62 0 105 -22v-85q-41 19 -101 19h-4q-42 0 -71.5 -20t-40.5 -47q-4 -16 -4 -64q0 -49 4 -65q11 -26 40.5 -46.5t71.5 -20.5h4q57 0 101 19v-85q-43 -22 -105 -22
h-5q-62 0 -112.5 26z" />
    <glyph glyph-name="registered" unicode="&#xae;" horiz-adv-x="505" 
d="M355 669q47 -28 75 -75t28 -102t-28 -102t-75 -74.5t-103 -27.5t-103 27.5t-74.5 74.5t-27.5 102t27.5 102t75 75t102.5 28q56 0 103 -28zM333 351q37 22 58.5 59.5t21.5 81.5t-21.5 81.5t-58.5 59.5t-81 22t-81 -22t-58.5 -59.5t-21.5 -81.5t21.5 -81.5t58.5 -59.5
t81 -22t81 22zM329.5 496.5q-12.5 -15.5 -32.5 -22.5l56 -85h-56l-71 112v-112h-49v217h89q32 0 54 -19t22 -50v-3q0 -22 -12.5 -37.5zM264 503q11 0 19.5 7.5t8.5 20.5v3q0 14 -8 21.5t-20 7.5h-38v-60h38z" />
    <glyph glyph-name="trademark" unicode="&#x2122;" horiz-adv-x="894" 
d="M826 691v-389h-99v168l-100 -94h-1l-100 95v-169h-98v389h1l198 -193l197 193h2zM349 590h-102v-288h-103v288h-102v90h307v-90z" />
    <glyph glyph-name="degree" unicode="&#xb0;" horiz-adv-x="477" 
d="M153.5 421q-38.5 22 -61 59.5t-22.5 82.5t22.5 82.5t61 59.5t84.5 22t85 -22t61.5 -59.5t22.5 -82.5t-22.5 -82.5t-61.5 -59.5t-85 -22t-84.5 22zM291 508.5q22 22.5 22 54.5t-22 54t-53 22t-52.5 -22t-21.5 -54t21.5 -54.5t52.5 -22.5t53 22.5z" />
    <glyph glyph-name="bar" unicode="|" horiz-adv-x="366" 
d="M125 710h115v-790h-115v790z" />
    <glyph glyph-name="brokenbar" unicode="&#xa6;" horiz-adv-x="366" 
d="M125 710h115v-330h-115v330zM125 250h115v-330h-115v330z" />
    <glyph glyph-name="dagger" unicode="&#x2020;" horiz-adv-x="558" 
d="M474 382h-138v-462h-115v462h-137v111h137v217h115v-217h138v-111z" />
    <glyph glyph-name="daggerdbl" unicode="&#x2021;" horiz-adv-x="558" 
d="M336 382v-129h138v-111h-138v-222h-115v222h-137v111h137v129h-137v111h137v217h115v-217h138v-111h-138z" />
    <glyph glyph-name="uni0308" unicode="&#x308;" 
d="M-449 709h147v-138h-147v138zM-216 709h146v-138h-146v138z" />
    <glyph glyph-name="uni0308.case" 
d="M-459 880h147v-136h-147v136zM-216 880h146v-136h-146v136z" />
    <glyph glyph-name="uni0307" unicode="&#x307;" 
d="M-233 709h163v-140h-163v140z" />
    <glyph glyph-name="uni0307.case" 
d="M-235 880h165v-136h-165v136z" />
    <glyph glyph-name="gravecomb" unicode="&#x300;" 
d="M-312 710h158l83 -142h-141z" />
    <glyph glyph-name="gravecomb.case" 
d="M-311 881h158l83 -137h-140z" />
    <glyph glyph-name="acutecomb" unicode="&#x301;" 
d="M-229 710h158l-99 -142h-142z" />
    <glyph glyph-name="acutecomb.case" 
d="M-228 881h158l-100 -137h-141z" />
    <glyph glyph-name="uni030B" unicode="&#x30b;" 
d="M-410 710h135l-93 -142h-125zM-205 710h135l-93 -142h-125z" />
    <glyph glyph-name="uni030B.case" 
d="M-384 881h124l-92 -137h-115zM-195 881h124l-92 -137h-115z" />
    <glyph glyph-name="uni030C.alt" 
d="M-185 710h114l-47 -208h-106z" />
    <glyph glyph-name="uni0302" unicode="&#x302;" 
d="M-202 568l-58 75l-58 -75h-132l103 142h174l103 -142h-132z" />
    <glyph glyph-name="uni0302.case" 
d="M-202 744l-58 73l-58 -73h-132l103 137h174l103 -137h-132z" />
    <glyph glyph-name="uni030C" unicode="&#x30c;" 
d="M-70 710l-103 -142h-174l-103 142h132l58 -75l58 75h132z" />
    <glyph glyph-name="uni030C.case" 
d="M-70 881l-103 -137h-174l-103 137h132l58 -73l58 73h132z" />
    <glyph glyph-name="uni0306" unicode="&#x306;" 
d="M-313 578.5q-36 19.5 -55 52.5t-19 72h85q2 -23 22 -39.5t52 -16.5t51.5 16.5t21.5 39.5h85q0 -39 -19 -71.5t-55 -52.5t-84 -20q-49 0 -85 19.5z" />
    <glyph glyph-name="uni0306.case" 
d="M-336.5 768.5q-40.5 39.5 -42.5 96.5h82q2 -20 21 -37t52 -17t52 17t21 37h81q-2 -57 -42.5 -96.5t-111.5 -39.5q-72 0 -112.5 39.5z" />
    <glyph glyph-name="uni030A" unicode="&#x30a;" 
d="M-276.5 595q-35.5 33 -35.5 81q0 47 35.5 80t85.5 33t85.5 -33t35.5 -80q0 -48 -35.5 -81t-85.5 -33t-85.5 33zM-156.5 641.5q14.5 14.5 14.5 34.5t-14.5 34t-34.5 14t-34.5 -14t-14.5 -34t14.5 -34.5t34.5 -14.5t34.5 14.5z" />
    <glyph glyph-name="uni030A.case" 
d="M-273 708.5q-35 33.5 -35 80.5t35 80.5t84 33.5t83.5 -33.5t34.5 -80.5t-34.5 -80.5t-83.5 -33.5t-84 33.5zM-154.5 754.5q14.5 14.5 14.5 34.5t-14.5 34t-34.5 14t-34.5 -14t-14.5 -34t14.5 -34.5t34.5 -14.5t34.5 14.5z" />
    <glyph glyph-name="tildecomb" unicode="&#x303;" 
d="M-330 712q34 0 78 -22l20 -10q30 -15 46 -15q13 0 20 12.5t8 34.5h87q-3 -143 -108 -143q-39 0 -79 21l-21 11q-14 8 -22.5 11t-18.5 3q-13 0 -22.5 -12.5t-10.5 -33.5h-87q3 143 110 143z" />
    <glyph glyph-name="tildecomb.case" 
d="M-334 883q36 0 78 -21l20 -10q30 -15 47 -15q15 0 21.5 11.5t7.5 34.5h89q-3 -69 -28.5 -104t-79.5 -35q-37 0 -79 22l-21 11q-24 13 -43 13q-31 0 -33 -46h-89q5 139 110 139z" />
    <glyph glyph-name="uni0304" unicode="&#x304;" 
d="M-368 689h297v-110h-297v110z" />
    <glyph glyph-name="uni0304.case" 
d="M-368 864h297v-110h-297v110z" />
    <glyph glyph-name="uni0312" unicode="&#x312;" 
d="M-202 702l131 102h1v-234h-132v132z" />
    <glyph glyph-name="uni0326" unicode="&#x326;" 
d="M-202 -59h132v-94l-131 -102h-1v196z" />
    <glyph glyph-name="uni0327" unicode="&#x327;" 
d="M-91.5 -90q21.5 -22 21.5 -57v-3q0 -47 -31.5 -71.5t-87.5 -24.5h-4q-23 0 -46 6.5t-38 16.5v60q31 -19 72 -19h4q17 0 27 9t10 22v6q0 12 -12.5 20.5t-32.5 8.5h-36l48 119h72l-25 -63q37 -8 58.5 -30z" />
    <glyph glyph-name="uni0328" unicode="&#x328;" 
d="M-221.5 -183.5q-27.5 23.5 -27.5 67.5v3q0 28 21 59.5t57 51.5l52 30l48 -28l-22 -15q-25 -17 -37.5 -36t-12.5 -36v-2q0 -17 11.5 -27.5t30.5 -10.5h3q12 0 27 3v-69q-12 -6 -30 -10t-34 -4h-4q-55 0 -82.5 23.5z" />
    <glyph glyph-name="acute" unicode="&#xb4;" horiz-adv-x="600" 
d="M262 710h158l-99 -142h-142z" />
    <glyph glyph-name="breve" unicode="&#x2d8;" horiz-adv-x="600" 
d="M220 578.5q-36 19.5 -55 52.5t-19 72h85q2 -23 22 -39.5t52 -16.5t51.5 16.5t21.5 39.5h85q0 -39 -19 -71.5t-55 -52.5t-84 -20q-49 0 -85 19.5z" />
    <glyph glyph-name="caron" unicode="&#x2c7;" horiz-adv-x="600" 
d="M491 710l-103 -142h-174l-103 142h132l58 -75l58 75h132z" />
    <glyph glyph-name="cedilla" unicode="&#xb8;" horiz-adv-x="600" 
d="M382.5 -90q21.5 -22 21.5 -57v-3q0 -47 -31.5 -71.5t-87.5 -24.5h-4q-23 0 -46 6.5t-38 16.5v60q31 -19 72 -19h4q17 0 27 9t10 22v6q0 12 -12.5 20.5t-32.5 8.5h-36l48 119h72l-25 -63q37 -8 58.5 -30z" />
    <glyph glyph-name="circumflex" unicode="&#x2c6;" horiz-adv-x="600" 
d="M359 568l-58 75l-58 -75h-132l103 142h174l103 -142h-132z" />
    <glyph glyph-name="dieresis" unicode="&#xa8;" horiz-adv-x="600" 
d="M111 709h147v-138h-147v138zM344 709h146v-138h-146v138z" />
    <glyph glyph-name="dotaccent" unicode="&#x2d9;" horiz-adv-x="600" 
d="M218 709h163v-140h-163v140z" />
    <glyph glyph-name="grave" unicode="`" horiz-adv-x="600" 
d="M179 710h158l83 -142h-141z" />
    <glyph glyph-name="hungarumlaut" unicode="&#x2dd;" horiz-adv-x="600" 
d="M183 710h135l-93 -142h-125zM388 710h135l-93 -142h-125z" />
    <glyph glyph-name="macron" unicode="&#xaf;" horiz-adv-x="600" 
d="M151 689h297v-110h-297v110z" />
    <glyph glyph-name="ogonek" unicode="&#x2db;" horiz-adv-x="600" 
d="M237.5 -183.5q-27.5 23.5 -27.5 67.5v3q0 28 21 59.5t57 51.5l52 30l48 -28l-22 -15q-25 -17 -37.5 -36t-12.5 -36v-2q0 -17 11.5 -27.5t30.5 -10.5h3q12 0 27 3v-69q-12 -6 -30 -10t-34 -4h-4q-55 0 -82.5 23.5z" />
    <glyph glyph-name="ring" unicode="&#x2da;" horiz-adv-x="600" 
d="M214.5 595q-35.5 33 -35.5 81q0 47 35.5 80t85.5 33t85.5 -33t35.5 -80q0 -48 -35.5 -81t-85.5 -33t-85.5 33zM334.5 641.5q14.5 14.5 14.5 34.5t-14.5 34t-34.5 14t-34.5 -14t-14.5 -34t14.5 -34.5t34.5 -14.5t34.5 14.5z" />
    <glyph glyph-name="tilde" unicode="&#x2dc;" horiz-adv-x="600" 
d="M225 712q34 0 78 -22l20 -10q30 -15 46 -15q13 0 20 12.5t8 34.5h87q-3 -143 -108 -143q-39 0 -79 21l-21 11q-14 8 -22.5 11t-18.5 3q-13 0 -22.5 -12.5t-10.5 -33.5h-87q3 143 110 143z" />
    <glyph glyph-name="uniE001" unicode="&#xe001;" horiz-adv-x="668" 
d="M511 83l-464 466v131h111v-83l464 -466v-131h-111v83z" />
    <glyph glyph-name="uniE002" horiz-adv-x="459" 
d="M264 225l-180 182v273h111v-225l180 -182v-273h-111v225z" />
    </font>
</defs>
</svg>
